<?xml version="1.0" standalone="no"?>
<!DOCTYPE svg PUBLIC "-//W3C//DTD SVG 20010904//EN"
 "http://www.w3.org/TR/2001/REC-SVG-20010904/DTD/svg10.dtd">
<svg version="1.0" xmlns="http://www.w3.org/2000/svg"
 width="500.000000pt" height="500.000000pt" viewBox="0 0 500.000000 500.000000"
 preserveAspectRatio="xMidYMid meet">
<metadata>
Created by potrace 1.14, written by Peter Selinger 2001-2017
</metadata>
<g transform="translate(0.000000,500.000000) scale(0.100000,-0.100000)"
fill="#000000" stroke="none">
<path d="M250 4996 c0 -2 55 -40 123 -84 67 -44 187 -124 267 -179 134 -91
336 -228 913 -618 122 -83 287 -195 367 -249 140 -96 351 -239 722 -491 98
-66 270 -182 382 -258 l203 -138 274 87 c307 97 683 215 774 243 145 45 333
104 500 157 99 31 190 59 203 61 l22 5 0 734 0 734 -2375 0 c-1306 0 -2375 -2
-2375 -4z"/>
<path d="M4885 3475 c-95 -32 -428 -139 -580 -186 -38 -12 -169 -54 -290 -94
-276 -91 -1024 -335 -1380 -451 -148 -48 -328 -106 -400 -130 -71 -23 -285
-93 -475 -154 -190 -62 -412 -134 -494 -161 -114 -38 -152 -46 -162 -38 -8 6
-14 8 -15 3 0 -5 -4 0 -9 11 -8 16 -9 14 -5 -10 2 -16 4 -32 5 -35 1 -3 2 -9
1 -13 -1 -5 3 -6 8 -3 5 4 11 0 14 -6 3 -10 7 -10 18 -1 11 9 19 7 37 -12 20
-21 21 -23 5 -31 -10 -4 -21 -8 -25 -8 -13 -2 -21 -16 -10 -17 22 -3 27 -4 41
-13 12 -8 12 -11 -3 -16 -17 -6 -17 -7 -2 -23 10 -9 13 -17 8 -17 -12 0 -72
76 -72 92 -1 8 -6 6 -15 -6 -9 -11 -12 -31 -9 -50 4 -24 3 -27 -5 -16 -9 13
-11 12 -12 -5 0 -16 -3 -14 -11 8 -5 15 -14 27 -19 27 -13 0 -11 -17 2 -26 6
-3 8 -16 5 -27 -3 -12 0 -27 5 -34 8 -9 6 -11 -9 -8 -15 3 -19 -2 -18 -23 1
-15 6 -30 11 -34 6 -5 6 -8 -2 -8 -16 0 -23 13 -28 57 -3 21 -6 43 -7 50 -1 7
-4 10 -8 8 -4 -2 -12 7 -19 21 -13 30 -14 37 -2 29 13 -7 9 48 -4 58 -6 5 5 6
23 3 29 -5 32 -4 23 13 -6 10 -7 22 -3 27 4 5 -4 0 -17 -11 -22 -18 -24 -18
-18 -2 4 11 3 16 -3 12 -6 -3 -10 -1 -10 4 0 6 -5 11 -11 11 -5 0 -8 -4 -5 -8
10 -17 14 -62 5 -62 -5 0 -9 8 -10 18 0 12 -2 13 -6 3 -3 -8 0 -19 8 -25 14
-11 16 -23 21 -116 3 -40 1 -45 -16 -42 -17 3 -17 0 8 -32 15 -20 25 -36 22
-36 -3 0 7 -24 22 -52 19 -37 34 -54 50 -56 29 -4 30 -44 2 -72 -20 -20 -18
-22 18 -23 21 -2 36 -23 26 -39 -4 -6 -3 -8 4 -4 6 3 17 -2 24 -12 8 -12 22
-18 36 -16 12 2 22 -1 22 -7 0 -5 -4 -7 -10 -4 -5 3 -10 0 -10 -7 0 -9 -3 -9
-10 2 -5 8 -10 11 -10 5 0 -5 -7 -1 -15 10 -14 18 -15 17 -12 -14 5 -43 31
-65 58 -48 13 8 15 13 6 19 -8 5 -6 8 6 8 13 0 16 -6 12 -27 -2 -15 0 -30 6
-34 17 -10 49 1 49 17 0 16 -12 18 -26 4 -6 -6 -9 0 -8 18 1 23 5 27 35 29 26
1 30 -1 16 -8 -21 -12 -22 -29 -1 -29 9 0 12 5 8 13 -5 7 -1 7 12 -3 29 -22
30 -24 10 -16 -14 5 -17 2 -12 -9 3 -8 2 -14 -2 -14 -25 4 -35 -2 -24 -13 14
-14 56 -22 47 -9 -3 5 0 13 6 17 7 4 10 3 6 -2 -3 -5 1 -18 9 -29 13 -17 16
-18 24 -5 8 12 10 10 10 -8 0 -13 4 -20 10 -17 13 8 13 -5 0 -25 -8 -13 -10
-13 -10 2 0 18 -18 34 -27 24 -3 -3 0 -12 7 -21 20 -24 -13 -19 -35 5 -10 11
-13 20 -7 20 6 0 13 -6 15 -12 4 -8 6 -7 6 3 1 19 -25 33 -34 19 -4 -6 -11
-10 -16 -10 -6 0 -7 5 -4 10 8 14 -13 40 -32 40 -8 0 -12 -4 -9 -8 2 -4 0 -14
-5 -22 -8 -12 -9 -11 -7 5 2 12 -2 19 -10 17 -7 -1 -15 5 -18 13 -3 8 -11 12
-16 9 -6 -4 -14 0 -19 7 -7 11 -11 11 -21 -4 -13 -18 -14 -18 -16 0 -4 39 -9
78 -11 82 0 2 -8 -2 -16 -9 -10 -9 -15 -9 -15 -1 0 6 5 11 11 11 7 0 9 10 4
28 -8 33 -25 53 -25 29 0 -25 -29 -21 -40 6 -8 18 -9 17 -4 -10 7 -40 -7 -43
-35 -7 l-21 27 4 -32 c2 -18 1 -30 -1 -27 -3 3 -12 -2 -20 -10 -9 -8 -13 -18
-9 -21 8 -9 -14 -33 -30 -33 -9 0 -13 10 -12 25 1 14 9 25 16 25 12 0 12 3 2
15 -9 11 -16 13 -24 5 -14 -14 -23 -13 -23 5 0 8 4 12 8 9 4 -2 10 0 14 5 3 6
-4 15 -15 21 -14 8 -20 8 -20 0 0 -6 -5 -8 -10 -5 -7 4 -7 12 0 25 17 32 11
36 -12 7 -28 -35 -31 -55 -7 -62 11 -4 18 -14 16 -25 -5 -32 -15 -33 -41 -5
-28 30 -33 41 -14 29 7 -5 9 -2 5 9 -3 8 1 21 9 27 16 14 19 35 4 25 -20 -12
-28 6 -15 32 8 15 12 31 9 37 -3 6 3 1 13 -12 10 -13 22 -20 26 -16 9 9 -11
44 -25 44 -6 0 -19 7 -27 14 -11 10 -21 12 -31 5 -12 -7 -11 -10 8 -15 12 -4
22 -13 22 -20 0 -19 -5 -18 -36 11 -28 26 -28 26 -6 32 12 3 20 9 17 12 -2 4
2 8 10 8 8 0 12 -4 9 -8 -2 -4 0 -10 5 -13 14 -9 21 20 8 33 -6 6 -7 11 -1 11
21 0 33 -23 23 -41 -8 -15 -5 -20 16 -25 17 -4 24 -11 21 -20 -3 -8 -2 -14 3
-14 5 0 11 9 14 20 3 11 1 18 -3 15 -12 -7 -23 13 -14 26 4 8 9 7 15 -2 6 -9
6 0 2 21 -3 19 -9 37 -12 40 -25 21 -40 80 -20 80 5 0 8 4 4 10 -3 5 -12 7
-20 4 -8 -4 -12 -11 -8 -17 3 -6 1 -7 -5 -3 -7 4 -12 20 -12 37 0 16 -4 29 -9
29 -5 0 -22 13 -38 28 -15 15 -38 35 -50 43 -16 11 -23 27 -25 56 -2 23 -6 39
-10 36 -5 -2 -8 0 -8 6 0 5 14 19 30 31 28 20 30 20 31 3 0 -12 2 -14 6 -4 3
7 -7 24 -22 37 -15 12 -24 28 -20 33 3 6 1 11 -4 11 -14 0 -14 -27 -1 -35 5
-3 10 -13 10 -21 0 -23 -20 -6 -35 29 -7 17 -20 32 -30 33 -15 2 -14 -1 4 -20
12 -12 21 -26 21 -32 0 -5 -16 8 -34 28 -19 21 -38 33 -41 28 -3 -6 -11 -10
-17 -10 -7 0 -6 5 2 15 6 8 9 18 7 23 -3 4 -2 14 3 21 6 10 9 8 15 -8 3 -11 9
-21 13 -22 4 0 15 -2 25 -4 15 -3 16 -1 6 11 -6 7 -15 11 -20 9 -4 -3 -13 4
-19 16 -10 17 -9 24 5 38 16 15 17 14 11 -19 -6 -34 -6 -35 10 -12 21 31 2 56
-35 47 -20 -4 -22 -3 -11 5 13 8 13 10 -1 10 -12 0 -16 -8 -15 -24 0 -13 5
-22 10 -18 6 3 6 -3 2 -14 -5 -10 -10 -27 -13 -36 -3 -9 -11 -14 -19 -11 -8 3
-14 -1 -14 -11 0 -15 14 -20 48 -19 7 1 24 -9 36 -21 18 -16 21 -26 15 -43 -5
-13 -5 -23 -1 -23 4 0 0 -5 -8 -10 -13 -8 -13 -11 -1 -22 9 -8 11 -9 7 -1 -14
25 14 22 31 -3 22 -34 29 -68 7 -40 -19 26 -18 7 1 -20 8 -12 11 -24 7 -28 -3
-4 0 -5 8 -2 20 8 51 -13 32 -21 -10 -4 -9 -9 4 -24 14 -15 14 -19 3 -19 -22
0 -51 -38 -36 -47 7 -4 15 -8 20 -9 20 -4 20 -6 -3 -16 -36 -16 -90 -14 -90 3
0 5 6 7 13 3 9 -6 9 -4 0 7 -19 20 -16 34 4 18 15 -12 16 -12 10 4 -4 10 -7
24 -7 29 0 6 -3 8 -7 4 -4 -3 -13 4 -19 16 -11 20 -12 16 -9 -34 3 -43 0 -62
-12 -73 -8 -9 -12 -19 -8 -23 3 -4 11 1 16 11 15 26 30 21 23 -8 -5 -20 -3
-24 10 -19 9 3 14 10 11 14 -3 5 -1 11 4 14 13 8 8 -19 -7 -36 -8 -10 -9 -24
-3 -45 10 -35 0 -59 -20 -48 -8 5 -1 -4 14 -18 29 -28 48 -37 28 -14 -6 8 -7
18 -3 22 4 5 1 5 -7 0 -10 -6 -12 -4 -6 5 12 19 36 -17 31 -46 -3 -13 1 -25 9
-28 16 -6 27 38 13 52 -5 5 -8 20 -5 33 4 22 4 22 6 -3 0 -16 6 -28 12 -28 7
0 9 10 7 25 -3 14 -1 28 3 31 10 6 10 5 12 -43 1 -17 -1 -29 -4 -27 -4 2 -10
-3 -13 -12 -4 -12 -2 -15 9 -10 8 3 15 1 15 -4 0 -6 -7 -10 -16 -10 -8 0 -12
-4 -9 -10 3 -5 -1 -10 -9 -10 -22 0 -20 -12 4 -33 12 -10 18 -23 14 -29 -5 -7
-10 -4 -15 9 -4 12 -16 26 -26 31 -10 6 -15 14 -11 17 4 4 2 13 -5 20 -7 7
-18 22 -26 33 -8 12 -19 19 -23 16 -5 -3 -4 -12 2 -19 9 -11 -1 -65 -13 -65
-2 0 -4 24 -3 54 1 34 -2 52 -9 48 -5 -3 -4 2 3 11 8 9 11 22 7 29 -4 7 0 5 8
-4 18 -22 26 -15 19 17 -3 19 -8 23 -20 16 -26 -15 -49 7 -44 43 3 17 10 37
16 45 8 11 8 13 -1 8 -8 -5 -11 0 -10 13 1 11 5 20 9 20 4 0 8 9 8 20 0 11 -5
20 -11 20 -6 0 -9 -7 -5 -15 3 -8 1 -15 -3 -15 -5 0 -12 6 -14 13 -3 7 -6 5
-6 -5 -1 -10 -8 -18 -16 -18 -15 0 -17 -20 -3 -30 4 -3 3 -12 -2 -20 -8 -13
-10 -12 -10 3 0 9 -4 17 -8 17 -4 0 -8 -9 -8 -20 0 -11 7 -20 14 -20 9 0 12
-6 8 -16 -5 -13 -4 -14 7 -6 14 12 27 7 27 -10 0 -5 -6 -6 -12 -2 -7 4 -5 -1
4 -12 16 -19 18 -23 18 -45 0 -5 6 -7 13 -3 7 5 6 0 -3 -11 -11 -14 -12 -19
-2 -22 6 -3 12 -16 12 -29 0 -18 -5 -24 -21 -24 -11 0 -17 4 -14 10 3 5 2 10
-3 10 -5 0 -14 11 -20 25 -13 29 -6 33 15 8 13 -16 13 -16 4 3 -6 12 -7 25 -3
29 4 5 1 5 -6 1 -8 -5 -13 -3 -11 5 3 28 -1 49 -11 49 -5 0 -7 -7 -3 -15 4
-12 0 -15 -20 -11 -24 4 -26 2 -22 -26 5 -40 22 -58 36 -38 9 12 10 12 5 -3
-3 -10 0 -20 7 -23 8 -3 13 -13 11 -22 -6 -49 -17 -79 -30 -79 -8 0 -13 6 -10
13 3 7 -2 18 -10 24 -17 15 -19 44 -2 34 7 -4 8 -3 4 4 -4 7 -2 12 3 12 6 0
11 4 11 8 0 4 -9 8 -19 8 -11 0 -17 -4 -15 -8 3 -4 0 -17 -6 -28 -8 -15 -8
-20 1 -20 7 0 9 -3 5 -7 -4 -5 -14 1 -22 11 -8 11 -14 15 -14 8 0 -6 -7 -9
-15 -6 -8 4 -15 12 -15 20 0 8 -4 14 -10 14 -5 0 -10 9 -10 20 0 24 -18 27
-26 5 -4 -9 5 -26 21 -41 15 -14 25 -28 22 -31 -10 -9 -28 8 -21 19 4 7 2 8
-5 4 -9 -6 -9 -11 0 -22 6 -7 9 -20 6 -28 -4 -10 0 -14 14 -13 10 1 19 6 19
11 0 5 3 6 6 3 4 -4 2 -13 -4 -20 -9 -10 -8 -14 3 -14 17 0 20 28 4 44 -7 7
-6 12 3 15 7 3 19 -1 26 -8 7 -8 9 -14 5 -14 -5 0 -9 -12 -10 -27 -2 -27 -2
-27 8 -5 5 15 13 20 21 16 9 -6 9 -9 0 -12 -7 -2 -12 -11 -12 -19 0 -9 6 -13
14 -10 8 3 17 -1 20 -10 4 -10 2 -14 -8 -10 -10 4 -13 1 -9 -9 4 -10 0 -12
-11 -8 -9 3 -16 13 -16 20 0 8 -13 17 -30 20 -16 4 -30 11 -30 16 0 17 -43 3
-46 -15 -2 -15 0 -16 12 -6 12 10 17 9 27 -1 9 -10 9 -11 0 -6 -7 4 -18 -7
-29 -29 -9 -20 -19 -33 -22 -31 -3 3 1 12 7 20 16 19 4 39 -16 31 -13 -4 -14
-3 -3 10 7 9 10 19 6 22 -4 4 -11 1 -16 -7 -6 -8 -10 -11 -10 -6 0 6 -5 5 -12
-2 -18 -18 -26 -15 -31 15 l-4 28 -2 -27 c0 -16 -6 -28 -12 -28 -6 0 -9 7 -6
15 4 8 2 17 -3 20 -6 4 -10 15 -10 26 0 17 11 24 32 20 5 0 8 16 8 37 0 24 -3
32 -9 23 -7 -10 -9 -11 -13 -1 -6 19 -36 21 -42 4 -4 -9 0 -14 9 -12 7 2 14 0
14 -4 3 -25 -1 -27 -21 -8 -12 11 -27 20 -33 20 -12 0 -14 55 -2 66 7 7 11
-10 8 -33 -3 -18 16 -16 23 2 3 8 -1 21 -9 29 -21 21 -19 23 17 20 18 -2 24
-1 13 2 -11 3 -24 11 -30 16 -7 8 -6 9 1 5 7 -4 15 0 18 9 3 8 2 13 -2 10 -4
-2 -9 14 -9 36 -2 46 -10 59 -23 38 -5 -8 -5 -22 1 -34 10 -21 10 -21 -5 -2
-14 17 -16 17 -16 4 0 -9 4 -20 10 -23 13 -8 13 -41 -1 -66 -10 -20 -11 -20
-24 -3 -12 17 -13 16 -21 -7 -10 -32 -14 -52 -7 -46 8 9 31 -17 26 -29 -2 -7
0 -15 6 -19 6 -3 11 -1 11 4 0 6 8 11 18 11 16 -1 16 -2 -2 -15 -10 -7 -15
-18 -11 -24 3 -6 1 -11 -4 -11 -6 0 -11 3 -11 8 0 4 -10 18 -23 32 -12 14 -18
20 -13 13 4 -7 6 -20 2 -28 -3 -9 -2 -13 4 -10 6 3 10 1 10 -6 0 -7 8 -22 17
-33 14 -17 13 -16 -9 2 -18 16 -28 20 -33 12 -4 -6 -5 -12 -4 -14 2 -1 16 -10
31 -19 19 -12 27 -25 25 -40 -1 -17 4 -23 23 -25 20 -2 22 -1 10 7 -8 6 -11
11 -6 11 5 0 3 7 -4 15 -11 13 -10 14 4 9 12 -5 16 0 16 17 0 18 -3 20 -9 10
-7 -11 -11 -10 -20 6 -9 18 -7 21 13 21 27 0 54 -53 31 -62 -7 -2 -12 -16 -12
-29 0 -20 4 -24 23 -23 13 0 24 4 24 7 0 3 7 6 15 6 8 0 15 -4 15 -9 0 -4 -4
-8 -10 -8 -5 0 -18 -9 -28 -20 -19 -20 -19 -20 -37 0 -10 11 -22 17 -26 14 -5
-3 -9 0 -9 7 0 7 -3 10 -6 6 -4 -3 -14 4 -24 16 -13 16 -15 27 -9 39 7 14 6
18 -6 18 -9 0 -14 -4 -10 -9 3 -5 0 -13 -6 -17 -8 -5 -9 -3 -4 6 6 10 4 12 -8
7 -10 -3 -17 -2 -17 3 0 6 -8 10 -17 10 -15 -1 -14 -5 7 -23 22 -19 24 -25 14
-45 -6 -13 -14 -22 -17 -20 -3 2 -9 -1 -14 -6 -5 -5 -2 -6 5 -1 10 5 13 0 10
-21 -1 -16 -7 -32 -13 -36 -6 -5 -5 -8 4 -8 11 0 11 -3 1 -15 -11 -13 -11 -18
0 -28 10 -9 11 -9 5 1 -6 11 -3 12 14 3 23 -13 27 -26 11 -36 -6 -3 -7 1 -4
12 5 17 5 17 -6 0 -6 -9 -9 -21 -6 -26 4 -5 3 -17 -1 -27 -6 -16 -7 -16 -15 2
-6 16 -7 15 -5 -6 1 -17 8 -25 23 -26 16 -1 19 4 16 26 -2 15 1 31 7 34 6 4 9
1 6 -6 -7 -19 9 -81 21 -85 7 -2 14 6 18 19 5 19 8 20 16 8 13 -20 13 -40 -1
-40 -5 0 -7 5 -3 12 4 6 3 8 -4 5 -16 -11 -2 -47 20 -47 14 0 18 6 16 23 -2
12 -7 27 -11 34 -4 6 -4 19 -1 28 6 14 3 16 -15 10 -15 -5 -23 -2 -27 12 -3
10 -10 26 -15 37 -8 13 -7 16 1 11 7 -4 14 2 17 16 6 21 7 22 13 3 4 -10 3
-25 -2 -31 -6 -7 -7 -21 -4 -30 5 -13 9 -14 15 -5 6 10 10 10 20 -2 7 -8 9
-20 5 -27 -4 -7 -2 -10 6 -7 8 2 15 9 17 15 6 16 -27 45 -43 39 -8 -3 -14 -2
-14 3 0 5 9 11 20 14 11 3 18 1 14 -4 -5 -8 9 -13 28 -10 5 0 7 -2 7 -7 -3
-19 2 -32 13 -29 6 1 14 -6 16 -15 2 -10 -1 -18 -7 -18 -6 0 -11 5 -11 10 0 6
-4 10 -10 10 -5 0 -7 -7 -4 -15 4 -8 2 -15 -3 -15 -5 0 -9 -15 -10 -32 -2 -28
0 -30 8 -13 7 16 8 14 3 -10 -3 -16 -11 -33 -17 -37 -9 -6 -8 -8 1 -8 7 0 10
-5 7 -11 -9 -14 -20 -2 -20 22 0 10 -4 19 -10 20 -15 1 -45 31 -40 39 3 4 -2
11 -11 14 -24 9 -26 8 -13 -15 9 -18 8 -20 -8 -15 -16 5 -19 2 -19 -16 1 -16
15 -32 43 -50 47 -31 58 -34 47 -15 -4 6 2 4 14 -6 11 -11 18 -25 16 -32 -8
-19 -59 -3 -58 18 1 9 -4 13 -12 10 -16 -6 -46 15 -39 27 2 4 -6 12 -18 17
-22 10 -23 8 -24 -23 -1 -19 4 -37 9 -40 6 -4 8 2 3 16 -6 18 -3 21 11 18 10
-2 24 -14 31 -28 7 -14 13 -18 13 -11 0 32 23 -9 25 -45 2 -31 0 -35 -10 -21
-15 21 -29 22 -22 2 4 -8 1 -17 -5 -21 -7 -5 -8 -2 -3 6 5 8 3 11 -6 8 -8 -3
-13 -14 -11 -24 2 -15 1 -16 -7 -4 -5 8 -7 18 -5 22 3 4 0 8 -6 8 -6 0 -8 5
-5 10 3 6 2 10 -3 10 -8 0 -9 -60 -3 -89 1 -2 8 2 16 9 8 7 15 9 15 4 1 -5 8
0 18 11 9 11 23 20 30 21 29 2 31 5 20 35 -6 16 -8 33 -4 36 3 4 6 -1 6 -10 0
-14 14 -21 40 -19 3 0 5 -14 5 -31 0 -40 -32 -70 -47 -43 -15 26 -36 20 -32
-10 2 -20 0 -24 -9 -15 -16 16 -29 13 -26 -7 2 -28 -1 -42 -10 -42 -12 0 -21
38 -10 44 5 2 4 3 -3 2 -17 -3 -24 -156 -7 -156 7 0 9 10 6 29 -4 20 -1 33 9
42 12 10 13 9 8 -5 -3 -9 -2 -16 4 -16 7 0 7 -11 0 -32 -6 -18 -13 -40 -15
-48 -4 -13 -5 -13 -14 0 -6 10 -8 -15 -7 -77 3 -73 7 -95 22 -112 11 -12 16
-24 13 -28 -4 -4 -13 1 -20 11 -10 14 -12 8 -14 -39 -1 -40 2 -58 12 -61 12
-5 11 -10 -3 -32 -16 -25 -16 -26 3 -19 18 6 18 6 4 -6 -12 -9 -17 -28 -16
-66 1 -37 3 -47 9 -32 4 13 13 19 23 15 8 -3 12 -10 9 -15 -3 -5 -2 -8 3 -7 4
2 9 -1 11 -7 1 -5 -2 -10 -7 -10 -20 0 -22 -15 -7 -37 18 -25 21 -48 6 -48 -5
0 -9 3 -8 8 3 12 -24 62 -34 62 -4 0 -8 -7 -8 -15 0 -8 5 -15 11 -15 5 0 7 -4
4 -10 -3 -5 1 -10 10 -10 9 0 14 -4 10 -10 -3 -5 -12 -7 -20 -3 -8 3 -15 0
-15 -6 0 -6 5 -11 11 -11 6 0 7 -5 2 -12 -14 -23 -14 -61 -1 -69 10 -7 10 -9
1 -9 -7 0 -13 -5 -13 -11 0 -5 4 -8 9 -5 5 3 14 -1 21 -9 9 -11 9 -15 1 -15
-7 0 -9 -9 -5 -25 5 -19 2 -25 -10 -25 -9 0 -16 -4 -16 -10 0 -5 4 -10 10 -10
6 0 6 -9 0 -25 -7 -20 -6 -25 5 -25 8 0 14 3 14 8 -3 20 2 32 16 32 8 0 15 4
15 10 0 18 34 50 53 50 16 0 16 -2 -3 -22 l-20 -22 27 -28 c15 -15 32 -28 37
-28 8 0 8 3 0 8 -18 12 -22 37 -9 55 11 15 14 14 36 -9 17 -18 19 -23 6 -18
-9 3 -17 10 -17 15 0 5 -5 9 -10 9 -14 0 -9 -31 8 -48 16 -18 85 -12 94 8 12
27 8 58 -8 64 -8 3 -13 2 -10 -3 3 -5 -4 -11 -17 -15 -24 -6 -57 18 -43 31 5
5 11 2 13 -4 7 -21 21 -15 25 9 2 15 9 22 21 21 12 0 16 4 13 13 -3 8 -1 14 4
14 6 0 10 -9 10 -20 0 -11 8 -24 17 -27 10 -4 24 -13 32 -21 12 -12 11 -13 -5
-10 -15 2 -19 -3 -19 -24 1 -15 -3 -26 -8 -25 -5 1 -12 -4 -14 -10 -3 -9 8
-13 39 -12 23 0 37 3 31 6 -18 7 -16 23 2 23 8 0 15 -7 15 -15 0 -9 9 -15 25
-15 14 0 25 5 25 11 0 8 4 8 13 1 13 -11 139 -14 132 -3 -2 4 0 13 5 20 6 11
10 9 19 -7 11 -20 20 -21 128 -21 80 0 120 4 125 12 6 9 8 9 8 0 0 -10 423
-13 2080 -13 l2080 0 0 1755 c0 965 -3 1755 -7 1754 -5 0 -53 -16 -108 -34z
m-4250 -1195 c-6 12 -5 12 4 4 10 -9 10 -17 1 -33 -14 -27 -30 -18 -30 16 0
23 2 24 17 12 15 -12 16 -12 8 1z m485 -61 c0 -8 -7 -5 -19 7 -10 10 -16 22
-14 27 6 10 33 -18 33 -34z m94 -83 c10 -17 12 -27 5 -31 -13 -9 -46 20 -46
40 0 23 23 18 41 -9z m-110 -31 c8 -19 21 -35 28 -35 9 0 9 -3 -2 -10 -23 -15
-27 -12 -34 18 -4 15 -9 35 -12 45 -9 31 5 18 20 -18z m166 -13 c0 -4 -9 -8
-20 -9 -11 -1 -20 3 -20 8 0 6 5 7 10 4 6 -3 10 -1 10 5 0 6 5 8 10 5 6 -3 10
-9 10 -13z m-555 -2 c3 -5 -1 -10 -9 -10 -9 0 -16 5 -16 10 0 6 4 10 9 10 6 0
13 -4 16 -10z m493 -2 c15 -15 16 -55 1 -64 -6 -3 -9 -15 -6 -25 3 -11 1 -16
-5 -13 -6 4 -8 -2 -3 -16 5 -17 4 -21 -6 -15 -11 6 -11 5 -2 -5 12 -13 37 -5
28 10 -3 4 2 13 10 20 10 9 15 9 15 1 0 -6 -5 -11 -11 -11 -5 0 -7 -5 -4 -11
5 -6 12 -4 20 8 7 10 11 21 8 26 -2 4 1 6 9 5 7 -2 14 4 14 12 1 8 3 20 4 25
1 6 2 14 1 18 -1 5 3 6 9 2 8 -5 7 -11 -1 -21 -14 -17 -5 -18 22 -4 12 7 19 7
19 1 0 -5 -7 -11 -16 -13 -14 -3 -13 -6 5 -22 21 -19 21 -19 22 5 0 20 2 18
13 -11 6 -19 18 -34 25 -32 7 1 10 -2 7 -7 -4 -5 4 -19 16 -30 16 -15 19 -24
11 -32 -8 -8 -13 -6 -17 9 -7 22 -56 82 -56 68 0 -5 -7 -3 -15 4 -9 7 -18 10
-22 6 -3 -3 -1 -6 5 -6 15 0 8 -53 -8 -58 -7 -3 -10 0 -6 6 3 6 2 13 -4 17 -6
4 -7 12 -3 18 11 19 11 48 -1 44 -6 -2 -10 -12 -8 -22 2 -9 -1 -14 -6 -11 -6
3 -13 -1 -16 -10 -4 -9 -13 -14 -21 -10 -10 4 -15 -1 -16 -17 0 -12 -3 -16 -6
-9 -2 6 -9 10 -14 6 -16 -9 -10 -22 9 -19 9 2 21 4 25 4 5 1 5 6 2 11 -3 6 1
10 9 10 28 0 31 -4 31 -38 1 -23 -5 -34 -18 -38 -18 -6 -18 -6 0 -27 10 -11
13 -17 7 -14 -8 5 -12 -4 -12 -27 0 -19 -3 -40 -7 -45 -12 -20 -23 -2 -19 30
4 35 3 35 -14 3 -8 -15 -8 -27 2 -46 7 -13 15 -38 19 -54 4 -25 4 -27 -8 -11
-10 14 -14 15 -18 5 -4 -9 -6 -9 -6 -1 -1 6 4 15 9 18 6 3 10 11 10 17 0 6 -3
8 -7 5 -3 -4 -12 -2 -20 5 -7 6 -17 7 -21 3 -4 -4 -1 -10 6 -12 17 -6 15 -23
-3 -23 -8 0 -15 9 -15 21 0 13 -4 18 -12 13 -19 -12 -45 -12 -46 0 0 6 -3 27
-7 46 -4 25 -3 31 4 20 6 -8 18 -15 28 -15 9 0 23 -11 30 -25 7 -14 13 -19 13
-11 0 8 6 11 15 7 8 -3 15 -1 15 4 0 6 -9 10 -20 10 -11 0 -20 4 -20 9 0 5 10
7 22 3 17 -4 20 -2 15 11 -8 21 2 49 14 41 5 -3 17 0 26 5 10 6 16 11 13 11
-54 11 -69 9 -65 -10 4 -23 -20 -47 -31 -29 -4 6 0 16 9 20 9 5 14 18 12 29
-2 11 1 20 6 20 6 0 7 6 4 13 -4 6 2 2 13 -10 11 -13 22 -23 25 -23 3 0 3 10
0 23 -3 14 -2 18 4 10 12 -16 38 1 30 20 -3 8 0 21 6 28 9 10 8 10 -6 -1 -10
-7 -15 -20 -12 -28 4 -12 3 -12 -9 -3 -10 9 -16 9 -21 1 -9 -15 -35 7 -35 29
0 9 -7 26 -15 39 -14 20 -14 21 0 16 10 -4 15 0 15 10 0 17 -17 18 -36 1 -9
-8 -7 -17 8 -37 11 -16 15 -28 9 -28 -6 0 -8 -12 -4 -32 4 -22 3 -29 -5 -24
-16 9 -15 -7 0 -22 6 -6 9 -14 7 -17 -3 -3 -11 7 -18 23 -25 53 -29 57 -48 56
-15 0 -19 5 -15 23 4 21 -4 28 -29 25 -4 -1 -10 10 -13 23 -8 31 -8 35 2 34 4
0 5 -8 4 -17 -2 -9 -1 -14 2 -11 4 4 8 16 11 28 2 11 7 26 10 31 7 12 25 4 25
-11 0 -6 -4 -7 -10 -4 -5 3 -10 2 -10 -4 0 -17 17 -21 29 -7 6 7 8 15 5 18 -2
3 2 8 11 12 12 4 14 2 5 -13 -7 -15 -6 -20 6 -25 12 -5 15 -2 10 9 -3 9 -2 13
3 10 5 -3 12 3 14 12 3 13 5 10 6 -7 1 -20 3 -22 11 -10 7 11 10 11 10 2 0 -7
4 -11 10 -7 5 3 7 13 4 23 -5 14 -4 15 5 2 9 -12 11 -9 11 15 0 20 -3 26 -9
17 -6 -10 -10 -9 -14 7 -6 23 3 27 21 9z m-477 -36 c-8 -14 -6 -18 10 -19 12
-1 17 3 13 9 -4 7 -2 8 4 4 6 -4 9 -12 6 -19 -2 -7 4 -22 14 -33 10 -10 17
-25 14 -32 -5 -16 -23 -16 -19 1 1 6 -3 11 -10 10 -7 -2 -10 4 -7 12 4 8 2 15
-4 15 -15 0 -22 -26 -11 -37 7 -7 5 -12 -4 -16 -10 -4 -17 2 -20 15 -6 21 -29
21 -33 0 -1 -7 0 -8 3 -2 7 15 23 12 23 -5 0 -9 7 -18 15 -21 8 -4 12 -10 9
-16 -3 -5 -16 -3 -30 6 -21 15 -23 15 -17 0 5 -13 2 -15 -15 -10 -12 4 -23 2
-28 -5 -4 -7 -3 -9 4 -5 6 3 13 2 17 -4 4 -6 11 -8 16 -5 16 11 9 -7 -8 -20
-14 -11 -19 -10 -29 3 -9 12 -10 8 -7 -19 l5 -34 -16 29 c-9 15 -16 33 -16 38
0 10 26 39 35 38 22 -1 26 2 23 20 -2 10 6 26 17 34 17 13 18 17 5 25 -8 5
-18 7 -22 5 -11 -7 -10 7 1 25 5 7 14 10 20 7 6 -4 11 -3 11 3 0 5 8 12 18 14
9 3 18 5 20 6 1 0 -2 -7 -7 -17z m539 -5 c0 -7 -4 -6 -11 3 -9 12 -10 11 -6
-8 3 -12 1 -20 -4 -16 -5 3 -9 -2 -9 -10 0 -9 -4 -16 -10 -16 -9 0 1 37 16 62
7 11 24 0 24 -15z m-294 -42 c-3 -8 0 -15 7 -16 9 0 9 -2 -1 -6 -6 -2 -10 -9
-7 -14 4 -5 -1 -6 -9 -3 -19 7 -20 20 -3 39 16 19 21 19 13 0z m-456 -26 c-6
-11 -8 -24 -5 -29 3 -6 1 -10 -4 -10 -6 0 -10 12 -9 28 2 34 7 44 19 37 5 -4
5 -14 -1 -26z m830 -29 c0 -5 -8 -10 -17 -10 -15 0 -16 2 -3 10 19 12 20 12
20 0z m-331 -17 c-9 -11 -10 -14 -2 -9 9 5 11 2 7 -8 -7 -20 -20 -13 -27 14
-4 15 0 20 15 20 18 0 19 -2 7 -17z m-252 -15 c-3 -8 -6 -5 -6 6 -1 11 2 17 5
13 3 -3 4 -12 1 -19z m52 3 c24 -21 20 -61 -5 -40 -8 6 -14 18 -14 26 0 8 -4
12 -8 9 -5 -3 -9 1 -9 9 0 20 10 19 36 -4z m251 9 c0 -5 -7 -10 -16 -10 -8 0
-12 5 -9 10 3 6 10 10 16 10 5 0 9 -4 9 -10z m388 -43 c-4 -26 -22 -26 -26 0
-3 15 -1 16 7 3 9 -13 11 -13 11 3 0 9 -6 17 -14 17 -7 0 -20 7 -27 17 -13 15
-11 15 19 -1 25 -13 32 -23 30 -39z m-68 5 c0 -2 -7 -2 -14 1 -10 4 -13 1 -9
-8 3 -8 9 -13 13 -10 15 9 75 -31 74 -48 -3 -41 -4 -42 -13 -28 -5 8 -7 20 -4
28 4 9 0 11 -11 7 -11 -4 -16 -1 -16 10 0 9 -4 16 -8 16 -5 0 -7 -13 -4 -30 2
-16 8 -30 13 -30 5 0 9 -5 9 -12 0 -9 -3 -9 -12 0 -9 9 -14 7 -24 -6 -10 -14
-15 -15 -26 -4 -11 11 -10 12 6 6 15 -6 18 -4 14 8 -4 9 -2 20 4 26 7 7 6 16
-2 29 -7 11 -10 12 -7 3 3 -9 -1 -24 -9 -34 -12 -17 -16 -17 -31 -5 -15 12
-16 12 -10 -3 3 -10 2 -20 -3 -23 -5 -3 -7 8 -5 25 4 27 -2 35 -26 32 -4 -1
-6 10 -6 23 0 14 3 25 8 25 5 0 9 -10 9 -22 0 -19 2 -20 10 -8 9 15 11 14 14
-12 1 -7 7 -12 14 -11 7 2 9 -4 5 -15 -6 -14 -4 -15 9 -4 16 12 14 57 -3 68
-5 3 -6 -3 -3 -13 3 -10 -1 -7 -9 6 -9 15 -16 20 -20 12 -4 -8 -5 -7 -3 1 2 7
11 12 20 12 9 -1 16 4 16 12 0 11 5 10 20 -3 11 -10 20 -19 20 -21z m-335 8
c-3 -5 -12 -10 -18 -10 -7 0 -6 4 3 10 19 12 23 12 15 0z m-320 -17 c-8 -8
-19 -11 -25 -8 -17 11 -11 20 15 21 21 2 22 0 10 -13z m330 -8 c17 0 33 4 37
10 5 6 8 6 8 -2 0 -6 -5 -15 -10 -18 -6 -4 -7 -11 -4 -17 4 -7 2 -8 -4 -4 -7
4 -12 3 -12 -2 0 -6 7 -13 16 -16 8 -3 12 -11 9 -17 -10 -15 -45 19 -45 44 0
19 -1 19 -12 4 -12 -15 -14 -15 -25 8 -8 19 -8 23 0 18 7 -5 26 -8 42 -8z
m-591 -47 c-11 -17 -24 -6 -24 19 0 26 1 26 14 8 8 -11 12 -23 10 -27z m643
10 c-3 -8 -6 -5 -6 6 -1 11 2 17 5 13 3 -3 4 -12 1 -19z m-1017 -13 c10 -12
10 -15 -4 -15 -9 0 -16 7 -16 15 0 8 2 15 4 15 2 0 9 -7 16 -15z m1400 -30 c0
-5 -5 -3 -10 5 -9 13 -11 13 -21 0 -9 -13 -10 -12 -5 3 3 10 6 24 6 30 0 6 7
2 15 -9 8 -10 14 -23 15 -29z m52 2 c2 -12 9 -21 16 -19 8 1 11 -2 7 -8 -5 -8
-11 -8 -19 -1 -7 6 -16 8 -19 5 -4 -4 -5 3 -2 14 2 12 0 24 -6 27 -5 4 -9 11
-9 17 0 19 29 -12 32 -35z m-815 3 c14 -11 21 -20 15 -20 -6 0 -14 5 -17 10
-4 6 -11 7 -17 4 -6 -4 -8 -2 -4 4 3 5 0 13 -6 15 -7 3 -9 6 -5 6 5 1 20 -8
34 -19z m558 0 c3 -5 1 -10 -4 -10 -6 0 -11 5 -11 10 0 6 2 10 4 10 3 0 8 -4
11 -10z m-155 -10 c0 -5 -2 -10 -4 -10 -3 0 -8 5 -11 10 -3 6 -1 10 4 10 6 0
11 -4 11 -10z m202 -27 c-1 -4 5 -15 12 -23 19 -21 27 -62 13 -57 -7 2 -11 12
-9 22 2 9 -1 14 -7 11 -5 -4 -12 -2 -16 4 -3 5 -1 10 6 10 10 0 10 3 1 12 -10
10 -15 10 -21 -1 -5 -8 -7 -21 -3 -30 6 -17 4 -16 -18 13 -11 15 -12 18 -1 12
10 -7 12 -3 6 14 -6 19 -4 21 15 15 17 -6 21 -4 15 6 -5 8 -5 11 -1 7 4 -3 8
-10 8 -15z m-592 -8 c7 -9 9 -19 5 -23 -4 -4 -10 -1 -12 6 -3 6 -11 12 -19 12
-8 0 -14 5 -14 10 0 15 26 12 40 -5z m647 -7 c-3 -8 -6 -5 -6 6 -1 11 2 17 5
13 3 -3 4 -12 1 -19z m-117 -14 c0 -8 5 -14 11 -14 6 0 9 -10 7 -23 -1 -12 5
-33 14 -46 10 -13 15 -28 12 -33 -3 -4 2 -8 11 -8 9 0 13 -5 10 -11 -5 -7 -13
-5 -24 5 -10 9 -21 14 -24 11 -4 -3 -3 0 2 6 10 13 4 39 -10 39 -4 0 -6 -8 -3
-17 5 -16 4 -16 -6 0 -9 14 -9 22 1 33 6 8 9 17 5 21 -3 3 -6 1 -6 -6 0 -7 -4
-9 -10 -6 -5 3 -10 -4 -11 -17 -1 -23 -1 -23 -8 2 -5 18 -3 26 7 28 10 3 12
13 8 33 -3 19 -2 28 4 24 6 -3 10 -13 10 -21z m166 -7 c-7 -33 -7 -33 -15 -12
-9 23 -3 47 10 39 5 -3 7 -15 5 -27z m-1236 14 c0 -6 -4 -13 -10 -16 -5 -3
-10 1 -10 9 0 9 5 16 10 16 6 0 10 -4 10 -9z m329 -36 c7 0 19 -9 27 -19 12
-18 14 -18 14 -2 0 9 5 22 12 29 9 10 17 8 36 -12 31 -31 36 -78 10 -92 -11
-6 -18 -6 -18 0 0 5 8 11 17 13 15 3 15 5 -2 21 -15 15 -20 16 -30 5 -18 -18
-29 -58 -16 -58 5 0 12 8 14 18 3 9 4 5 4 -10 -2 -32 -14 -36 -33 -10 -9 11
-13 12 -14 4 0 -16 -60 13 -60 30 0 6 8 4 18 -5 32 -29 37 -18 7 13 -19 20
-35 28 -47 24 -10 -3 -18 0 -18 6 0 6 4 9 9 6 5 -3 12 1 15 10 6 15 8 15 24 0
10 -9 25 -16 33 -17 9 0 7 -3 -5 -8 -17 -6 -16 -9 9 -25 15 -10 29 -15 33 -12
3 3 0 6 -6 6 -7 0 -12 5 -12 10 0 6 6 10 14 10 7 0 19 7 27 16 7 8 21 13 32
10 17 -4 17 -2 -4 20 l-23 25 -13 -26 c-17 -31 -24 -31 -53 0 -12 13 -26 22
-31 20 -4 -3 -11 0 -15 6 -5 8 -3 9 6 4 10 -6 12 -4 7 7 -3 9 -3 19 1 23 4 4
9 -4 12 -17 3 -13 12 -23 19 -23z m1011 -17 c0 -17 -22 -7 -27 12 -3 11 -9 17
-14 14 -14 -8 -29 5 -23 21 4 10 12 8 35 -12 16 -15 29 -30 29 -35z m-815 40
c14 -6 25 -15 25 -20 0 -11 -18 -10 -25 2 -4 6 -11 8 -16 4 -5 -3 -7 -9 -4
-14 3 -4 -1 -10 -8 -13 -8 -3 -19 4 -26 15 -9 15 -9 19 1 17 7 -1 20 -1 28 0
13 1 13 2 0 11 -21 13 -6 12 25 -2z m914 -21 c-16 -31 -18 -32 -16 -8 1 11 5
21 10 21 4 0 5 5 1 12 -4 7 -3 8 4 4 9 -5 9 -13 1 -29z m-178 -31 c-5 -6 -9
-23 -8 -38 2 -25 9 -32 28 -30 4 1 5 -7 2 -18 -6 -23 -29 -16 -38 13 -12 40
-12 85 1 80 7 -3 10 5 8 24 -4 27 -4 27 6 4 6 -15 7 -28 1 -35z m-636 16 c-3
-3 -11 0 -18 7 -9 10 -8 11 6 5 10 -3 15 -9 12 -12z m749 10 c3 -5 -1 -9 -9
-9 -8 0 -15 4 -15 9 0 4 4 8 9 8 6 0 12 -4 15 -8z m32 -19 c-10 -10 -19 5 -10
18 6 11 8 11 12 0 2 -7 1 -15 -2 -18z m-574 -25 c-6 -6 -12 -4 -16 7 -3 9 -2
13 4 10 6 -3 10 0 11 7 0 10 2 10 6 0 3 -8 1 -18 -5 -24z m662 24 c3 -5 -1 -9
-9 -9 -8 0 -12 4 -9 9 3 4 7 8 9 8 2 0 6 -4 9 -8z m-956 -15 c18 -12 15 -27
-5 -21 -15 5 -15 3 1 -10 11 -9 23 -16 28 -16 4 0 8 -7 8 -15 0 -8 7 -15 15
-15 8 0 15 -8 14 -17 0 -12 -2 -13 -6 -5 -4 10 -8 10 -19 1 -11 -9 -14 -9 -14
0 0 16 -50 62 -61 56 -4 -3 -10 -1 -14 4 -3 6 -12 8 -20 4 -8 -3 -15 0 -15 6
0 6 5 11 11 11 6 0 17 6 25 14 14 15 31 16 52 3z m670 -53 c32 -27 34 -32 20
-45 -15 -13 -15 -16 0 -34 16 -19 16 -19 -1 -6 -17 13 -18 12 -11 -14 5 -20 4
-26 -5 -21 -6 4 -11 15 -11 24 0 15 -2 15 -10 2 -8 -13 -12 -12 -27 4 -16 18
-16 19 0 7 14 -11 17 -11 17 2 0 8 7 18 16 21 8 3 12 10 9 16 -4 6 -10 8 -15
5 -4 -3 -7 5 -6 18 3 25 -19 53 -29 37 -3 -6 -12 -10 -18 -10 -7 0 -4 7 6 14
9 7 17 19 18 27 0 11 2 11 6 -1 3 -8 22 -29 41 -46z m119 34 c-3 -8 -6 -5 -6
6 -1 11 2 17 5 13 3 -3 4 -12 1 -19z m25 -3 c-2 -14 -9 -25 -14 -25 -5 0 -7 3
-5 8 2 4 7 15 10 25 9 25 15 21 9 -8z m48 15 c0 -5 -2 -10 -4 -10 -3 0 -8 5
-11 10 -3 6 -1 10 4 10 6 0 11 -4 11 -10z m-643 -11 c-9 -6 -15 -14 -12 -20 4
-5 2 -9 -3 -9 -18 0 -21 29 -4 33 30 8 37 7 19 -4z m523 -9 c0 -5 -2 -10 -4
-10 -3 0 -8 5 -11 10 -3 6 -1 10 4 10 6 0 11 -4 11 -10z m27 -12 c-3 -8 -6 -5
-6 6 -1 11 2 17 5 13 3 -3 4 -12 1 -19z m167 14 c2 -4 -4 -9 -15 -9 -11 -1
-17 2 -14 8 7 11 22 12 29 1z m-703 -19 c1 -17 2 -17 6 0 4 15 7 15 25 -8 11
-14 18 -29 14 -32 -3 -4 -6 -2 -6 4 0 6 -7 14 -16 17 -12 4 -15 2 -10 -9 10
-26 -3 -16 -19 15 -9 17 -11 30 -5 30 5 0 11 -8 11 -17z m-851 3 c0 -3 -4 -8
-10 -11 -5 -3 -10 -1 -10 4 0 6 5 11 10 11 6 0 10 -2 10 -4z m54 -12 c5 -14 4
-15 -9 -4 -17 14 -19 20 -6 20 5 0 12 -7 15 -16z m79 -2 c7 -7 18 -8 22 -4 5
4 5 1 1 -6 -4 -7 -4 -21 -1 -33 7 -20 7 -20 21 -2 13 16 14 15 8 -12 -4 -23
-3 -26 5 -15 9 13 15 11 38 -14 15 -16 22 -26 16 -22 -7 4 -13 3 -13 -3 0 -5
-3 -16 -6 -25 -3 -9 -1 -16 6 -16 6 0 8 4 5 10 -3 5 0 7 8 4 17 -6 29 30 15
44 -6 6 -6 12 1 16 6 4 11 0 11 -8 0 -9 5 -16 10 -16 7 0 7 6 1 18 -5 10 -6
24 -1 32 4 7 6 20 3 29 -4 14 -3 14 6 1 10 -13 13 -13 25 3 15 19 31 24 20 5
-4 -7 -3 -8 4 -4 6 4 9 13 5 21 -3 8 -1 15 5 15 5 0 13 -11 16 -25 4 -14 11
-23 16 -20 14 9 40 -38 38 -69 -2 -20 -7 -26 -20 -23 -19 5 -26 -14 -20 -51 6
-28 24 -24 33 9 7 23 7 23 8 2 1 -12 5 -25 11 -28 5 -3 7 0 4 8 -3 8 -1 18 5
22 7 4 8 0 4 -11 -5 -13 -3 -15 7 -9 9 5 11 4 6 -3 -4 -7 2 -33 13 -58 25 -56
25 -55 6 -48 -8 4 -12 11 -9 16 4 6 1 8 -7 6 -8 -3 -13 -10 -12 -16 2 -6 -3
-9 -10 -6 -16 6 -19 41 -5 50 7 4 8 2 4 -4 -4 -7 -1 -12 8 -12 25 0 19 19 -9
30 -18 7 -23 14 -18 26 4 12 3 15 -6 10 -7 -5 -10 -14 -7 -22 3 -7 1 -16 -4
-19 -5 -3 -11 3 -15 14 -6 19 -39 34 -49 23 -12 -12 -6 -34 8 -29 16 6 40 -16
29 -27 -4 -4 1 -4 11 0 14 5 17 4 12 -4 -4 -7 -2 -12 4 -12 6 0 8 -5 5 -10 -4
-7 -15 -2 -29 12 -34 35 -46 33 -35 -5 12 -43 11 -50 -6 -43 -9 3 -15 0 -15
-10 0 -11 -4 -12 -19 -4 -30 15 -36 -6 -8 -25 13 -8 31 -13 40 -10 8 4 18 2
21 -3 3 -5 -4 -12 -15 -15 -15 -4 -31 3 -50 21 -27 25 -28 29 -15 47 9 11 16
14 16 8 0 -7 5 -13 11 -13 5 0 7 5 3 12 -4 7 -3 8 4 4 16 -10 15 6 0 24 -11
12 -10 12 5 1 23 -18 22 1 -2 23 -21 20 -34 56 -19 56 5 0 6 5 3 10 -4 6 -11
8 -16 4 -5 -3 -9 -2 -8 3 5 30 -2 35 -21 18 -11 -10 -20 -14 -20 -9 -1 5 -9
-2 -20 -15 -11 -12 -17 -28 -13 -35 3 -6 -3 -2 -15 8 -31 27 -27 8 6 -27 15
-17 21 -27 15 -23 -9 5 -13 0 -13 -16 0 -18 2 -20 10 -8 6 9 10 10 10 3 0 -7
-8 -16 -17 -22 -15 -8 -16 -12 -5 -22 15 -16 16 -49 1 -49 -8 0 -8 -4 0 -14 8
-9 8 -16 2 -20 -9 -6 -22 18 -20 38 0 5 -5 13 -13 17 -10 7 -9 9 5 9 17 0 23
15 9 23 -11 8 -54 -31 -47 -43 3 -5 2 -10 -4 -10 -6 0 -15 10 -22 21 -8 15 -8
19 0 15 6 -4 11 0 11 8 0 9 8 24 18 34 22 22 25 52 5 52 -8 0 -11 -4 -8 -10
11 -17 -7 -11 -21 8 -7 9 -14 12 -14 5 0 -6 7 -19 16 -27 9 -9 11 -16 4 -16
-6 0 -8 -6 -4 -12 5 -10 4 -10 -5 -2 -18 17 -22 56 -7 85 8 15 13 48 13 73 0
25 3 49 6 53 4 3 7 1 7 -5 0 -7 5 -12 10 -12 7 0 7 6 1 19 -6 10 -7 22 -3 27
4 5 0 3 -10 -4 -11 -9 -18 -10 -23 -2 -9 15 4 31 22 28 9 -2 18 3 21 11 3 8 0
11 -6 7 -6 -3 -13 -2 -17 4 -3 5 -15 10 -26 10 -11 0 -18 4 -15 8 7 12 41 8
59 -6z m134 -4 c-3 -8 -6 -5 -6 6 -1 11 2 17 5 13 3 -3 4 -12 1 -19z m1224 5
c12 -14 12 -16 0 -8 -11 6 -13 4 -8 -11 7 -18 6 -18 -6 -2 -8 10 -18 14 -23
10 -4 -4 -2 1 5 11 16 21 15 21 32 0z m-1261 2 c0 -2 -6 -8 -13 -14 -10 -8
-14 -7 -14 2 0 8 6 14 14 14 7 0 13 -1 13 -2z m1314 -26 c-2 -4 3 -9 11 -13
21 -7 19 -51 -2 -67 -15 -11 -16 -11 -5 1 17 20 15 57 -4 64 -8 3 -12 10 -9
16 3 5 1 10 -5 10 -6 0 -8 5 -4 11 4 8 9 7 15 -2 4 -7 6 -16 3 -20z m-929 1
c10 -11 14 -20 9 -20 -5 0 -17 9 -27 20 -9 11 -13 20 -8 20 4 0 16 -9 26 -20z
m114 4 c4 3 8 -5 8 -16 2 -19 1 -19 -11 -3 -9 13 -15 15 -20 7 -8 -14 6 -44
20 -42 5 0 11 -7 13 -17 3 -17 2 -17 -18 1 -11 11 -21 14 -21 8 0 -6 10 -18
22 -26 20 -15 22 -14 36 14 11 23 17 26 27 17 10 -10 9 -13 -6 -19 -31 -12
-37 -80 -10 -112 16 -19 15 -19 -10 -3 -20 14 -25 24 -23 52 2 19 0 35 -5 35
-17 0 -52 38 -41 45 6 4 8 16 5 26 -4 11 -1 27 6 36 9 10 15 11 17 4 2 -6 7
-9 11 -7z m78 -4 c2 -23 -13 -35 -23 -19 -4 8 -3 9 4 5 7 -4 12 -2 12 3 0 6
-8 11 -17 12 -15 0 -15 2 2 9 11 5 20 9 20 9 1 1 1 -8 2 -19z m138 -10 c16 3
16 -16 0 -30 -13 -11 -15 -10 -10 3 4 8 2 18 -4 22 -6 3 -11 14 -10 23 0 15 1
15 8 -1 4 -10 11 -18 16 -17z m479 14 c5 -13 4 -14 -7 -6 -8 7 -18 8 -22 4 -5
-4 -5 -1 -1 6 10 17 23 15 30 -4z m-1477 -18 c-7 -11 -17 -28 -24 -36 -16 -21
-16 -27 7 -50 11 -11 20 -26 20 -32 -1 -7 -7 -2 -15 12 -8 14 -14 21 -15 16 0
-5 -6 -3 -14 3 -15 13 -10 51 6 51 6 0 5 7 -2 15 -8 9 -8 15 -2 15 6 0 13 -6
15 -12 4 -10 6 -10 6 -1 1 6 -3 15 -9 18 -18 11 -11 23 14 23 22 0 23 -3 13
-22z m618 12 c5 4 5 1 1 -6 -6 -10 -11 -10 -22 -1 -8 6 -14 14 -14 16 0 3 6 0
13 -6 8 -6 18 -7 22 -3z m-301 -12 c-10 -44 -12 -47 -33 -35 -20 13 -19 35 2
22 7 -4 6 1 -2 10 -12 15 -11 17 10 14 13 -2 23 -7 23 -11z m266 -6 c0 -5 -8
-6 -17 -3 -16 6 -16 5 -4 -10 7 -9 10 -17 6 -17 -4 0 3 -9 16 -20 14 -11 18
-19 11 -20 -7 0 -10 -5 -7 -10 4 -6 1 -9 -6 -8 -7 2 -13 -2 -14 -9 0 -15 -12
-26 -30 -29 -8 -1 -11 4 -8 12 3 8 9 11 14 8 12 -7 5 34 -8 47 -7 7 -17 2 -32
-17 -15 -19 -21 -22 -21 -10 0 9 5 16 11 16 5 0 7 6 3 13 -4 6 -4 9 1 5 4 -4
15 -2 23 4 11 10 16 9 23 -5 11 -18 39 -23 39 -7 0 6 -5 10 -10 10 -16 0 -29
43 -18 57 11 13 28 9 28 -7z m869 -10 c19 10 31 4 31 -14 0 -6 -4 -5 -9 2 -6
10 -10 9 -14 -7 -3 -14 0 -21 9 -21 8 0 15 -3 15 -7 9 -62 8 -73 -9 -73 -13 0
-14 2 -3 9 11 7 10 11 -5 20 -11 6 -13 11 -6 11 10 0 10 4 0 23 -7 12 -11 28
-10 34 2 7 -3 10 -12 7 -18 -7 -28 9 -19 33 7 16 8 16 11 -4 3 -19 7 -21 21
-13z m-149 0 c0 -5 -9 -6 -20 -3 -11 3 -20 9 -20 13 0 5 9 6 20 3 11 -3 20 -9
20 -13z m275 -1 c-4 -5 -12 -9 -18 -8 -9 0 -8 2 1 6 6 2 9 10 6 15 -4 7 -2 8
5 4 6 -4 9 -12 6 -17z m127 3 c3 -10 0 -19 -6 -19 -7 0 -12 9 -12 19 0 10 3
18 7 18 4 0 9 -8 11 -18z m-1684 1 c-1 -5 1 -23 5 -40 4 -22 12 -33 24 -33 12
0 14 -3 6 -11 -6 -6 -9 -18 -6 -27 4 -10 2 -13 -6 -8 -6 4 -10 15 -9 24 2 11
-3 16 -13 14 -9 -1 -20 5 -23 14 -5 12 -2 15 11 10 15 -5 15 -4 -1 9 -12 9
-15 15 -7 15 7 0 11 6 8 14 -3 8 -3 17 0 20 9 8 13 8 11 -1z m900 -13 c14 -23
32 -26 32 -6 0 8 4 17 8 20 7 4 8 -17 3 -64 -1 -12 -4 -12 -15 3 -7 9 -17 17
-22 17 -5 0 -14 11 -21 25 -13 30 -3 33 15 5z m-791 -21 c0 -27 -2 -29 -12
-15 -7 8 -16 12 -21 8 -5 -4 0 3 10 16 11 12 20 22 21 22 1 0 2 -14 2 -31z
m403 21 c0 -5 -8 -10 -17 -10 -15 0 -16 2 -3 10 19 12 20 12 20 0z m82 -4 c7
5 8 2 3 -6 -5 -9 -2 -10 14 -5 16 5 20 3 15 -9 -8 -20 -48 -5 -51 20 -2 11 0
13 3 6 3 -6 11 -9 16 -6z m1123 -7 c-4 -5 -1 -9 4 -9 6 0 11 -8 11 -17 0 -15
-2 -14 -15 3 -17 22 -20 48 -5 39 6 -4 8 -11 5 -16z m-1015 -24 c11 -13 10
-15 -3 -9 -9 3 -19 -2 -25 -13 -6 -10 -12 -21 -14 -24 -1 -3 5 -14 15 -23 17
-17 17 -19 1 -37 -9 -11 -29 -19 -43 -19 -18 0 -22 -3 -14 -11 6 -6 9 -18 6
-25 -3 -8 1 -14 11 -14 18 0 19 -2 10 -24 -5 -14 -9 -14 -22 -4 -13 11 -14 11
-7 -1 5 -9 4 -12 -3 -7 -6 3 -15 -2 -21 -11 -5 -10 -13 -15 -16 -11 -4 4 2 16
13 28 14 15 19 33 18 61 -2 23 2 38 8 37 6 0 22 3 35 9 20 8 21 11 9 24 -7 8
-14 29 -15 47 0 28 2 32 21 27 19 -6 20 -5 4 8 -10 8 -18 17 -18 21 0 10 34
-10 50 -29z m320 21 c0 -14 38 -14 62 0 7 4 10 4 6 -1 -4 -4 -3 -14 3 -22 14
-16 -2 -18 -18 -2 -9 9 -14 5 -19 -15 -3 -14 -4 -33 0 -41 3 -8 -2 -19 -12
-24 -11 -7 -12 -11 -4 -11 7 0 11 -4 7 -9 -3 -5 3 -16 13 -23 18 -12 47 -58
40 -61 -2 -1 -19 -15 -38 -32 -19 -16 -32 -26 -27 -21 4 5 0 17 -9 27 -14 16
-14 18 5 24 12 3 21 12 21 20 0 7 5 15 11 17 7 2 5 9 -5 17 -14 12 -16 10 -16
-10 -1 -22 -2 -22 -14 6 -8 18 -10 37 -5 46 5 9 5 19 2 23 -3 3 -2 6 4 6 6 0
13 16 15 35 2 19 0 35 -4 35 -4 0 -8 -5 -8 -10 0 -7 -6 -7 -20 0 -23 13 -27
40 -5 40 8 0 15 -6 15 -14z m-160 -6 c0 -5 -2 -10 -4 -10 -3 0 -8 5 -11 10 -3
6 -1 10 4 10 6 0 11 -4 11 -10z m-790 -35 c7 -9 21 -13 31 -10 22 7 31 -6 14
-22 -10 -9 -17 -7 -33 8 -12 10 -24 15 -27 10 -3 -5 -1 -12 5 -16 13 -8 13
-45 0 -45 -5 0 -7 7 -4 15 4 8 1 15 -6 15 -7 0 -10 8 -7 20 3 10 -1 24 -9 31
-8 6 -14 16 -14 21 0 11 32 -6 50 -27z m1309 18 c-7 -10 -14 -20 -16 -22 -1
-1 -7 0 -13 4 -8 5 -5 11 7 21 25 19 38 17 22 -3z m-494 -2 c3 -5 2 -12 -3
-15 -5 -3 -9 1 -9 9 0 17 3 19 12 6z m609 -7 c4 -10 1 -14 -6 -12 -15 5 -23
28 -10 28 5 0 13 -7 16 -16z m-667 0 c-6 -6 12 -30 58 -77 17 -17 22 -25 13
-17 -10 7 -18 10 -18 7 0 -10 -57 48 -69 71 -10 19 -9 22 5 22 10 0 15 -3 11
-6z m153 -20 c0 -16 16 -19 25 -4 9 15 25 12 19 -3 -3 -8 -10 -14 -17 -14 -7
0 -25 -3 -39 -6 -22 -6 -26 -4 -22 8 4 8 11 15 16 15 6 0 5 7 -2 15 -11 13
-10 14 4 9 9 -3 16 -12 16 -20z m432 1 c3 -13 1 -22 -3 -19 -9 5 -13 44 -5 44
2 0 6 -11 8 -25z m-509 -22 c-15 -12 -11 -17 10 -14 4 0 7 -3 7 -9 0 -15 -16
-12 -30 5 -10 12 -9 16 3 21 9 3 14 13 10 22 -4 15 -3 15 6 2 8 -11 7 -18 -6
-27z m267 22 c7 -9 8 -15 2 -15 -5 0 -12 7 -16 15 -3 8 -4 15 -2 15 2 0 9 -7
16 -15z m130 -1 c0 -8 -5 -12 -10 -9 -6 4 -8 11 -5 16 9 14 15 11 15 -7z
m-692 -25 c-19 -12 -25 -11 -25 5 0 8 8 11 20 8 14 -4 16 -7 5 -13z m136 6
c-4 -8 -10 -12 -15 -9 -11 6 -2 24 11 24 5 0 7 -7 4 -15z m389 -1 c10 13 12 9
12 -23 0 -22 -3 -42 -6 -45 -3 -3 -5 4 -5 16 1 15 -7 24 -24 29 -14 4 -19 7
-12 8 6 1 13 9 13 19 1 15 2 15 6 -1 4 -17 6 -17 16 -3z m202 -4 c-2 -30 -12
-34 -17 -5 -3 15 -1 25 7 25 6 0 11 -9 10 -20z m27 -5 c3 -13 2 -22 -3 -20 -4
3 -10 -3 -12 -12 -3 -10 -4 -4 -2 12 2 17 4 33 4 38 2 15 9 6 13 -18z m33 -13
c-8 -8 -25 10 -25 26 0 13 2 13 14 -4 8 -10 13 -21 11 -22z m148 0 c3 8 6 5 6
-7 0 -11 -4 -27 -10 -35 -10 -13 -10 -13 -6 0 2 8 -2 21 -9 28 -9 8 -14 9 -14
2 0 -6 -5 -8 -12 -4 -9 6 -9 9 1 12 9 3 7 10 -6 26 -10 11 -4 8 14 -7 22 -21
32 -25 36 -15z m-349 16 c-5 -7 -2 -9 8 -6 13 5 14 3 4 -17 -13 -28 -24 -24
-20 7 3 28 3 28 10 28 3 0 2 -5 -2 -12z m573 -10 c-3 -8 -6 -5 -6 6 -1 11 2
17 5 13 3 -3 4 -12 1 -19z m-487 -3 c4 3 10 -2 14 -10 3 -9 0 -15 -9 -15 -8 0
-15 2 -15 4 0 2 -2 10 -3 18 -2 7 -2 10 0 5 3 -4 8 -5 13 -2z m337 -17 c-3 -8
-6 -5 -6 6 -1 11 2 17 5 13 3 -3 4 -12 1 -19z m-1511 -34 c-8 -22 -21 -9 -21
22 -1 21 1 22 13 10 9 -8 12 -22 8 -32z m200 -17 c-2 -7 -5 -4 -5 6 -1 9 -5
17 -9 17 -4 0 -8 10 -9 23 -2 20 0 19 13 -6 9 -16 13 -34 10 -40z m288 54 c4
-5 3 -18 -2 -30 -5 -15 -11 -18 -22 -11 -11 7 -11 10 -2 10 10 0 10 5 2 20 -8
16 -8 20 4 20 8 0 17 -4 20 -9z m156 -11 c0 -14 -28 -19 -33 -5 -3 7 -3 15 0
18 7 7 33 -3 33 -13z m100 -15 c0 -38 -16 -37 -17 1 0 18 3 31 8 28 5 -3 9
-16 9 -29z m233 5 c-7 -28 -13 -25 -13 6 0 14 4 23 9 20 5 -3 7 -15 4 -26z
m-816 -2 c-1 -10 -6 -18 -12 -19 -5 0 1 -5 14 -10 13 -5 21 -12 18 -15 -3 -3
-13 -1 -23 4 -20 11 -26 59 -8 59 7 0 12 -9 11 -19z m863 12 c0 -5 -5 -10 -11
-10 -5 0 -7 5 -4 10 3 6 8 10 11 10 2 0 4 -4 4 -10z m261 -13 c-5 -13 -6 -28
-3 -33 12 -15 32 -15 32 1 0 22 -4 30 -13 27 -5 -1 -6 2 -2 8 4 6 13 5 26 -3
22 -14 23 -69 1 -73 -7 -1 -8 0 -2 3 13 6 13 23 0 23 -14 0 -38 -52 -32 -70 5
-16 4 -15 -18 14 -8 11 -10 17 -4 13 7 -4 15 1 19 10 3 10 1 19 -4 21 -6 2
-11 11 -11 20 -1 16 -1 16 -11 0 -9 -16 -11 -16 -28 1 -9 9 -21 26 -24 37 -5
13 0 11 16 -8 l23 -28 11 30 c6 17 16 30 22 30 7 0 7 -8 2 -23z m-841 -23 c0
-8 -5 -14 -11 -14 -5 0 -8 4 -5 9 4 5 -2 7 -13 4 -12 -3 -20 2 -23 15 -5 18
-3 19 23 10 16 -5 29 -16 29 -24z m387 15 c2 -16 -1 -19 -9 -11 -5 5 -7 15 -4
21 10 15 12 14 13 -10z m280 -11 c-3 -7 -5 -2 -5 12 0 14 2 19 5 13 2 -7 2
-19 0 -25z m-523 8 c-3 -8 0 -17 5 -21 6 -3 8 -11 5 -17 -3 -5 9 -26 27 -46
l34 -36 -32 25 c-18 13 -35 32 -38 42 -4 9 -11 17 -16 17 -6 0 -8 -4 -4 -9 3
-5 0 -13 -6 -17 -8 -4 -9 -3 -5 4 4 7 1 12 -6 12 -9 0 -9 3 2 10 8 5 12 10 8
10 -4 0 0 9 9 20 21 24 24 25 17 6z m286 -22 c0 5 7 3 15 -4 8 -7 15 -19 15
-27 0 -20 -47 16 -54 42 -5 20 -5 20 9 1 8 -11 15 -16 15 -12z m30 16 c0 -5
-2 -10 -4 -10 -3 0 -8 5 -11 10 -3 6 -1 10 4 10 6 0 11 -4 11 -10z m170 -5 c4
3 6 -3 3 -14 -3 -11 3 -24 15 -32 16 -12 17 -16 6 -27 -9 -8 -14 -9 -15 -2 -2
15 -4 22 -17 53 -7 16 -12 31 -11 35 0 4 3 1 6 -6 2 -6 8 -10 13 -7z m409 -1
c-12 -15 -11 -16 9 -10 15 5 22 3 22 -5 0 -7 -3 -9 -7 -6 -3 4 -11 1 -17 -6
-6 -7 -10 -10 -9 -8 2 2 -2 10 -8 17 -12 14 -4 34 13 34 6 0 5 -7 -3 -16z
m-122 -31 c-3 -10 -5 -4 -5 12 0 17 2 24 5 18 2 -7 2 -21 0 -30z m-900 5 c-3
-8 -6 -5 -6 6 -1 11 2 17 5 13 3 -3 4 -12 1 -19z m364 5 c13 -16 12 -17 -3 -4
-10 7 -18 15 -18 17 0 8 8 3 21 -13z m-136 -23 c-5 -8 -53 -5 -62 3 -2 3 0 8
6 12 6 3 11 2 11 -4 0 -6 7 -8 15 -5 8 4 12 11 8 18 -4 6 1 5 10 -3 9 -7 15
-17 12 -21z m325 9 c0 -5 -4 -9 -8 -9 -5 0 -9 7 -9 15 0 8 4 12 9 9 4 -3 8 -9
8 -15z m135 -6 c4 -13 3 -14 -9 -4 -8 7 -20 10 -26 6 -5 -3 -10 0 -10 8 0 20
36 11 45 -10z m405 19 c0 -5 -6 -17 -14 -28 -10 -13 -14 -14 -13 -4 4 26 27
54 27 32z m-1396 -18 c3 -8 2 -12 -4 -9 -6 3 -10 10 -10 16 0 14 7 11 14 -7z
m47 -7 c-13 -13 -26 -3 -16 12 3 6 11 8 17 5 6 -4 6 -10 -1 -17z m1016 1 c-3
-8 -6 -5 -6 6 -1 11 2 17 5 13 3 -3 4 -12 1 -19z m-493 3 c3 -5 -1 -11 -9 -14
-9 -4 -12 -1 -8 9 6 16 10 17 17 5z m666 -1 c0 -5 -4 -10 -10 -10 -5 0 -10 5
-10 10 0 6 5 10 10 10 6 0 10 -4 10 -10z m74 -6 c3 -8 2 -12 -4 -9 -6 3 -10
10 -10 16 0 14 7 11 14 -7z m-603 -4 c9 13 10 12 5 -2 -3 -10 -2 -18 3 -18 4
0 8 -6 8 -14 0 -12 -5 -11 -23 2 -13 9 -23 24 -24 32 0 13 1 13 10 0 9 -13 11
-13 21 0z m702 -10 c-3 -11 -7 -20 -9 -20 -2 0 -4 9 -4 20 0 11 4 20 9 20 5 0
7 -9 4 -20z m268 3 c13 -16 12 -17 -3 -4 -10 7 -18 15 -18 17 0 8 8 3 21 -13z
m-1856 -3 c3 -5 1 -10 -4 -10 -6 0 -11 5 -11 10 0 6 2 10 4 10 3 0 8 -4 11
-10z m1380 -10 c-5 -24 8 -25 40 -4 14 9 25 12 25 8 0 -5 4 -3 9 4 6 11 10 10
15 -4 4 -10 4 -15 0 -11 -4 4 -13 -1 -21 -11 -12 -16 -13 -15 -6 3 7 19 6 19
-20 2 -14 -9 -33 -17 -42 -17 -9 0 -14 -4 -11 -9 3 -5 -1 -12 -10 -15 -10 -4
-13 -13 -9 -28 5 -19 3 -18 -10 5 -9 15 -18 27 -21 27 -3 0 -2 -5 2 -12 5 -7
3 -8 -6 -3 -11 7 -10 10 1 19 8 6 13 19 11 29 -2 9 1 17 7 17 6 0 11 -12 11
-27 0 -31 12 -24 16 10 1 12 3 25 3 30 1 4 5 7 10 7 6 0 8 -9 6 -20z m-1035
-6 c0 -14 -3 -14 -15 -4 -8 7 -15 14 -15 16 0 2 7 4 15 4 8 0 15 -7 15 -16z
m25 6 c3 -5 1 -10 -4 -10 -6 0 -11 5 -11 10 0 6 2 10 4 10 3 0 8 -4 11 -10z
m105 -7 c0 -10 -4 -14 -8 -8 -4 6 -11 13 -16 18 -5 4 -2 7 7 7 10 0 17 -8 17
-17z m215 7 c3 -5 1 -10 -4 -10 -6 0 -11 5 -11 10 0 6 2 10 4 10 3 0 8 -4 11
-10z m350 1 c3 -5 1 -12 -5 -16 -5 -3 -10 1 -10 9 0 18 6 21 15 7z m155 -17
c0 -22 -2 -24 -14 -14 -8 6 -12 18 -9 26 9 23 23 16 23 -12z m60 5 c0 -5 -4
-9 -10 -9 -5 0 -10 7 -10 16 0 8 5 12 10 9 6 -3 10 -10 10 -16z m-636 2 c19
-7 19 -8 -1 -13 -14 -4 -24 0 -27 8 -6 15 -1 16 28 5z m926 -6 c0 -8 -2 -15
-4 -15 -2 0 -6 7 -10 15 -3 8 -1 15 4 15 6 0 10 -7 10 -15z m59 -26 c-7 -4
-16 -6 -18 -3 -3 3 1 9 9 14 8 6 11 10 7 10 -5 0 -5 6 0 13 5 8 9 7 11 -7 2
-10 -2 -22 -9 -27z m-735 25 c9 -3 16 -12 16 -20 0 -8 5 -14 10 -14 6 0 10
-12 10 -26 0 -14 -4 -23 -10 -19 -5 3 -7 12 -4 19 3 8 1 17 -5 21 -6 3 -11 1
-11 -4 0 -6 -5 -11 -12 -11 -9 0 -9 3 -1 11 13 13 6 42 -8 33 -5 -3 -9 0 -9 5
0 13 3 13 24 5z m206 -14 c0 -5 -7 -7 -15 -4 -8 4 -15 8 -15 10 0 2 7 4 15 4
8 0 15 -4 15 -10z m66 -5 c-3 -8 0 -15 6 -15 6 0 9 -3 5 -6 -10 -11 -26 6 -20
21 3 8 7 15 10 15 3 0 3 -7 -1 -15z m84 6 c0 -5 7 -17 17 -26 14 -14 14 -18 2
-26 -10 -6 -15 -4 -17 7 -3 13 -6 13 -18 -3 -7 -10 -14 -13 -14 -7 0 6 7 17
15 24 12 10 13 16 4 26 -8 10 -8 14 0 14 6 0 11 -4 11 -9z m-1055 -10 c-8 -14
25 -31 61 -31 8 0 13 -4 10 -9 -3 -5 1 -14 10 -21 8 -7 12 -20 9 -28 -3 -10 0
-12 10 -9 19 8 30 -10 16 -27 -6 -7 -8 -16 -4 -19 3 -4 1 -7 -5 -7 -7 0 -13 5
-13 10 -1 6 -2 14 -3 20 0 5 -10 16 -21 24 -18 13 -22 13 -37 -1 -22 -20 -24
-41 -3 -23 8 7 15 8 15 4 0 -5 -9 -15 -20 -22 -17 -11 -20 -10 -20 7 0 11 -4
23 -10 26 -12 8 -13 -35 -1 -54 5 -7 13 -11 19 -7 5 3 13 -1 16 -10 3 -8 2
-13 -3 -9 -15 8 -40 -5 -35 -19 3 -7 -3 -19 -13 -27 -16 -13 -17 -12 -4 3 12
16 10 20 -9 36 -21 17 -21 19 -5 35 18 18 16 54 -3 50 -7 -2 -9 4 -5 14 4 11
8 13 11 5 2 -7 8 -12 14 -12 6 0 8 6 5 14 -3 8 1 17 9 20 12 4 14 1 9 -14 -6
-19 13 -29 28 -14 7 7 -11 52 -30 75 -7 9 -10 19 -6 22 10 10 15 8 8 -2z m920
-10 c-3 -6 -11 -11 -16 -11 -5 0 -4 6 3 14 14 16 24 13 13 -3z m-625 -1 c0 -5
-2 -10 -4 -10 -3 0 -8 5 -11 10 -3 6 -1 10 4 10 6 0 11 -4 11 -10z m210 6 c0
-3 -4 -8 -10 -11 -5 -3 -10 -1 -10 4 0 6 5 11 10 11 6 0 10 -2 10 -4z m63 -17
c-3 -11 -12 -23 -20 -26 -8 -3 -11 -13 -8 -24 5 -14 2 -17 -9 -13 -12 5 -13
10 -4 30 6 13 15 21 19 18 5 -3 9 4 9 15 0 12 4 21 9 21 5 0 7 -9 4 -21z
m-702 -14 c5 4 9 1 9 -4 0 -6 7 -11 16 -11 8 0 12 -5 9 -10 -4 -7 -14 -6 -28
1 -27 15 -38 30 -29 44 4 6 8 3 10 -8 2 -9 8 -15 13 -12z m1159 16 c0 -6 -5
-13 -10 -16 -8 -5 -7 -11 0 -20 8 -10 9 -19 1 -32 -9 -16 -10 -15 -11 8 0 14
-6 31 -12 38 -11 11 -10 12 1 6 11 -6 13 -4 8 8 -4 11 -1 17 8 17 8 0 15 -4
15 -9z m-1276 -16 c-5 -12 -10 -13 -20 -4 -19 15 -18 19 6 19 13 0 18 -5 14
-15z m579 0 c4 -8 2 -17 -3 -20 -6 -4 -10 3 -10 14 0 25 6 27 13 6z m178 -17
c-3 -21 -6 -26 -9 -15 -3 17 3 47 11 47 2 0 1 -15 -2 -32z m716 10 c-3 -8 -6
-5 -6 6 -1 11 2 17 5 13 3 -3 4 -12 1 -19z m120 3 c1 -14 -3 -18 -13 -14 -11
4 -12 9 -3 19 15 18 14 18 16 -5z m-1177 -16 c-7 -8 -9 -18 -6 -24 3 -5 -3 -7
-14 -4 -11 3 -17 10 -13 17 4 6 0 6 -9 -2 -13 -10 -17 -10 -22 4 -5 14 -1 16
24 11 23 -5 30 -3 30 9 0 8 5 12 10 9 8 -5 7 -11 0 -20z m124 14 c-7 -13 -51
-16 -51 -4 0 7 13 12 28 11 15 -1 25 -4 23 -7z m606 -1 c0 -7 -4 -19 -9 -27
-7 -10 -9 -7 -8 12 2 26 17 39 17 15z m70 -4 c0 -8 -4 -12 -10 -9 -5 3 -10 10
-10 16 0 5 5 9 10 9 6 0 10 -7 10 -16z m193 -47 c5 -14 3 -18 -11 -15 -9 2
-18 9 -18 16 -1 6 -2 17 -3 23 0 5 -5 8 -9 5 -4 -2 -8 4 -8 14 0 17 2 17 21
-3 12 -12 25 -30 28 -40z m-1336 31 c-3 -8 -6 -5 -6 6 -1 11 2 17 5 13 3 -3 4
-12 1 -19z m375 -6 c-7 -2 -10 -8 -6 -13 3 -5 0 -9 -5 -9 -13 0 -13 3 -5 24 3
9 11 13 17 9 8 -5 7 -8 -1 -11z m228 -7 c0 -17 7 -28 22 -34 18 -6 19 -9 5
-14 -9 -3 -19 -2 -22 4 -4 5 -11 7 -16 4 -5 -3 -6 0 -3 8 3 8 1 18 -5 22 -16
9 -13 35 4 35 9 0 15 -9 15 -25z m180 21 c0 -2 -7 -9 -15 -16 -13 -11 -14 -10
-9 4 5 14 24 23 24 12z m220 -6 c0 -5 -5 -10 -11 -10 -5 0 -7 5 -4 10 3 6 8
10 11 10 2 0 4 -4 4 -10z m-970 -29 c-6 -12 -5 -22 3 -30 9 -10 9 -12 -3 -9
-19 4 -35 41 -20 46 5 2 8 8 5 13 -4 5 1 6 9 3 11 -4 13 -11 6 -23z m74 13 c3
-8 2 -12 -4 -9 -6 3 -10 10 -10 16 0 14 7 11 14 -7z m371 6 c8 -13 -5 -13 -25
0 -13 8 -13 10 2 10 9 0 20 -4 23 -10z m167 -12 c-7 -7 -12 -8 -12 -2 0 14 12
26 19 19 2 -3 -1 -11 -7 -17z m182 6 c3 -8 2 -12 -4 -9 -6 3 -10 10 -10 16 0
14 7 11 14 -7z m306 -19 c0 -5 -5 -3 -10 5 -5 8 -10 20 -10 25 0 6 5 3 10 -5
5 -8 10 -19 10 -25z m272 28 c-6 -2 -9 -10 -6 -15 4 -7 2 -8 -4 -4 -18 11 -14
26 6 25 10 0 12 -3 4 -6z m172 -23 c-6 -6 -10 -2 -11 12 -2 16 1 18 10 9 7 -7
8 -14 1 -21z m-664 -1 c0 -5 -4 -9 -10 -9 -5 0 -10 7 -10 16 0 8 5 12 10 9 6
-3 10 -10 10 -16z m-50 -4 c10 -13 9 -15 -8 -15 -15 0 -20 5 -16 15 4 8 7 15
9 15 1 0 8 -7 15 -15z m111 -8 c-10 -9 -11 -8 -5 6 3 10 9 15 12 12 3 -3 0
-11 -7 -18z m569 1 c0 -6 -6 -5 -15 2 -8 7 -15 14 -15 16 0 2 7 1 15 -2 8 -4
15 -11 15 -16z m-1470 2 c0 -5 -2 -10 -4 -10 -3 0 -8 5 -11 10 -3 6 -1 10 4
10 6 0 11 -4 11 -10z m327 -15 c-9 -19 -13 -21 -15 -9 -3 13 12 33 25 34 0 0
-4 -11 -10 -25z m321 7 c-2 -18 3 -32 12 -32 5 0 7 8 3 18 -4 10 -3 13 3 7 5
-5 13 -12 17 -16 4 -3 -3 -10 -16 -16 -22 -10 -25 -9 -34 22 -9 27 -8 32 3 28
7 -3 13 -8 12 -11z m879 -12 c1 -17 -1 -30 -5 -30 -6 0 -9 47 -3 58 4 7 6 -1
8 -28z m207 14 c4 -9 4 -19 1 -22 -2 -3 -7 3 -11 12 -3 9 -11 13 -17 9 -6 -3
-7 -1 -3 5 10 17 23 15 30 -4z m-1437 -9 c0 -8 -4 -12 -9 -9 -4 3 -8 9 -8 15
0 5 4 9 8 9 5 0 9 -7 9 -15z m83 8 c0 -5 -4 -14 -9 -21 -6 -10 -10 -9 -14 7
-3 14 0 21 9 21 8 0 14 -3 14 -7z m77 -26 c2 -17 1 -19 -7 -7 -11 17 -14 47
-3 36 4 -3 8 -17 10 -29z m533 18 c0 -12 -19 -12 -23 0 -4 9 -1 12 9 8 7 -3
14 -7 14 -8z m306 -22 c-3 -4 -6 -1 -6 6 0 7 -5 9 -10 6 -6 -4 -8 -11 -5 -16
3 -5 -1 -6 -9 -3 -12 5 -12 8 2 23 14 14 18 15 25 3 5 -7 6 -16 3 -19z m-1031
17 c3 -6 -1 -7 -9 -4 -18 7 -21 14 -7 14 6 0 13 -4 16 -10z m235 -24 c0 -17
-26 -3 -27 14 -2 18 0 18 13 6 8 -8 14 -17 14 -20z m330 30 c0 -3 -4 -8 -10
-11 -5 -3 -10 -1 -10 4 0 6 5 11 10 11 6 0 10 -2 10 -4z m375 -13 c-2 -10 -4
-22 -4 -26 -1 -5 -6 -5 -12 -1 -8 4 -7 9 2 15 11 7 11 9 -1 9 -13 0 -13 1 0
10 19 13 19 13 15 -7z m440 -1 c-3 -3 -11 0 -18 7 -9 10 -8 11 6 5 10 -3 15
-9 12 -12z m-1622 -29 c-6 -16 -19 -17 -29 -1 -4 7 -3 8 4 4 7 -4 12 -2 12 3
0 6 -4 11 -10 11 -5 0 -10 5 -10 10 0 6 7 6 19 -2 10 -6 17 -18 14 -25z m1384
22 c0 -8 -6 -15 -13 -15 -8 0 -11 6 -8 15 4 8 9 15 13 15 4 0 8 -7 8 -15z
m-667 -9 c0 -17 -38 -28 -47 -14 -3 7 -1 8 5 4 6 -3 17 0 24 8 16 19 18 19 18
2z m-786 -22 c-4 -21 -1 -25 13 -20 10 3 25 1 33 -5 12 -8 10 -9 -7 -4 -17 5
-23 2 -23 -9 0 -9 -5 -16 -12 -16 -9 0 -9 -3 0 -12 19 -19 14 -32 -5 -17 -16
13 -17 12 -5 -3 9 -11 10 -18 2 -23 -8 -5 -15 17 -8 28 1 1 -4 12 -11 25 -8
16 -9 27 -1 42 8 15 8 20 -2 20 -9 0 -9 3 2 10 24 15 29 12 24 -16z m486 -5
c0 -4 -8 -10 -17 -14 -14 -5 -15 -3 -6 6 6 6 9 19 6 28 -4 14 -3 14 6 1 6 -8
11 -18 11 -21z m407 19 c-2 -7 -1 -22 4 -34 12 -35 -4 -43 -31 -16 -14 14 -17
20 -7 13 9 -8 18 -10 19 -5 0 5 2 14 3 19 2 6 3 16 4 23 0 6 4 12 7 12 3 0 4
-6 1 -12z m-507 -43 c-13 -12 -15 -10 -16 16 -1 28 0 29 15 15 13 -14 13 -18
1 -31z m63 30 c-3 -9 -8 -14 -10 -11 -3 3 -2 9 2 15 9 16 15 13 8 -4z m1387
11 c0 -3 -4 -8 -10 -11 -5 -3 -10 -1 -10 4 0 6 5 11 10 11 6 0 10 -2 10 -4z
m-1155 -16 c11 -17 -5 -32 -21 -19 -7 6 -11 15 -8 20 7 12 21 11 29 -1z m145
2 c0 -13 -12 -22 -22 -16 -10 6 -1 24 13 24 5 0 9 -4 9 -8z m-745 -11 c-3 -6
3 -14 12 -20 10 -5 15 -13 11 -16 -10 -10 -41 23 -33 35 3 5 8 10 11 10 3 0 3
-4 -1 -9z m1860 -1 c3 -5 1 -10 -4 -10 -6 0 -11 5 -11 10 0 6 2 10 4 10 3 0 8
-4 11 -10z m-1356 -32 c0 -27 -2 -29 -8 -13 -5 11 -6 26 -4 33 8 21 13 13 12
-20z m354 13 c-18 -12 -23 -42 -8 -47 8 -4 15 -12 15 -20 0 -10 -6 -8 -20 6
-23 23 -23 21 -10 55 6 15 15 23 21 19 7 -4 7 -9 2 -13z m-506 -13 c-3 -8 -6
-5 -6 6 -1 11 2 17 5 13 3 -3 4 -12 1 -19z m603 -4 c0 5 7 3 15 -4 8 -7 15
-18 15 -24 0 -6 -4 -4 -10 4 -8 12 -10 12 -16 -3 -3 -9 -13 -17 -22 -17 -13 0
-13 2 3 13 12 10 14 16 7 21 -7 4 -12 13 -12 19 0 7 4 6 10 -3 5 -8 10 -11 10
-6z m694 1 c-4 -8 -11 -12 -16 -9 -6 4 -5 10 3 15 19 12 19 11 13 -6z m-1684
-27 c0 -5 -4 -8 -10 -8 -5 0 -10 10 -10 23 0 18 2 19 10 7 5 -8 10 -18 10 -22z
m660 16 c0 -8 -5 -12 -10 -9 -6 4 -8 11 -5 16 9 14 15 11 15 -7z m-530 -14 c9
-16 8 -19 -6 -13 -13 5 -15 3 -9 -7 5 -9 4 -11 -4 -6 -8 6 -9 12 -2 20 6 7 8
16 4 19 -3 4 -3 7 0 7 3 0 11 -9 17 -20z m104 -5 c-4 -16 -2 -25 6 -25 7 0 10
7 6 15 -3 9 0 15 9 15 11 0 12 -5 5 -26 -6 -14 -7 -31 -4 -37 3 -7 -4 -1 -15
13 -22 26 -28 70 -11 70 6 0 8 -11 4 -25z m226 4 c0 -6 -4 -7 -10 -4 -5 3 -10
11 -10 16 0 6 5 7 10 4 6 -3 10 -11 10 -16z m353 -11 c-2 -5 1 -17 8 -26 13
-16 12 -16 -6 -1 -11 9 -27 14 -35 11 -11 -4 -10 -1 3 12 9 10 17 23 17 29 0
7 4 6 9 -3 6 -8 7 -18 4 -22z m1008 9 c-10 -9 -11 -8 -5 6 3 10 9 15 12 12 3
-3 0 -11 -7 -18z m-1417 -3 c3 -8 2 -12 -4 -9 -6 3 -10 10 -10 16 0 14 7 11
14 -7z m-364 -9 c0 -8 -4 -15 -10 -15 -5 0 -7 7 -4 15 4 8 8 15 10 15 2 0 4
-7 4 -15z m152 -14 c8 11 9 11 4 -3 -3 -10 -1 -20 4 -23 5 -3 8 -14 7 -25 -1
-10 -4 -17 -8 -14 -4 2 -10 0 -14 -6 -3 -5 1 -10 9 -10 10 0 13 -6 10 -15 -6
-14 -8 -13 -19 2 -7 10 -11 21 -9 25 2 4 0 9 -6 13 -5 3 -10 12 -10 18 0 7 5
4 11 -6 10 -17 29 -15 29 4 0 6 -5 7 -10 4 -6 -4 -9 -1 -8 7 2 8 -5 12 -17 11
-11 -1 -14 0 -7 3 6 3 13 15 13 27 2 20 2 20 6 -2 4 -19 7 -21 15 -10z m554 2
c-7 -7 -26 7 -26 19 0 6 6 6 15 -2 9 -7 13 -15 11 -17z m837 7 c-3 -11 -7 -20
-9 -20 -2 0 -4 9 -4 20 0 11 4 20 9 20 5 0 7 -9 4 -20z m-1253 -1 c0 -4 -8
-13 -17 -20 -14 -12 -15 -12 -9 0 5 8 3 16 -5 22 -10 6 -7 8 9 6 12 0 22 -4
22 -8z m-474 -27 c-8 -9 -19 -13 -22 -9 -10 9 16 38 28 31 6 -4 4 -13 -6 -22z
m134 18 c0 -5 -4 -10 -10 -10 -5 0 -10 5 -10 10 0 6 5 10 10 10 6 0 10 -4 10
-10z m681 -2 c2 -32 9 -52 21 -60 9 -7 8 -8 -7 -6 -14 2 -21 14 -26 41 -3 20
-2 37 3 37 4 0 8 -6 9 -12z m-191 -8 c12 -8 12 -10 -3 -16 -9 -3 -14 -10 -11
-15 3 -5 -2 -6 -10 -3 -16 6 -18 44 -1 44 5 0 17 -4 25 -10z m1240 -15 c0 -8
-2 -15 -4 -15 -2 0 -6 7 -10 15 -3 8 -1 15 4 15 6 0 10 -7 10 -15z m-1740 -5
c0 -5 -7 -7 -15 -4 -8 4 -15 8 -15 10 0 2 7 4 15 4 8 0 15 -4 15 -10z m141 -3
c-5 -5 -17 -5 -28 2 -16 9 -15 10 9 9 16 -2 24 -6 19 -11z m385 -29 c-18 -12
-26 -9 -26 10 0 14 2 15 10 2 8 -12 10 -10 11 10 0 23 1 23 8 5 5 -12 4 -23
-3 -27z m47 27 c-3 -9 -8 -14 -10 -11 -3 3 -2 9 2 15 9 16 15 13 8 -4z m217
11 c0 -15 -24 -66 -32 -66 -5 0 -6 -5 -2 -12 4 -7 3 -8 -4 -4 -12 7 -5 36 8
36 5 0 7 11 4 25 -3 18 0 25 11 25 8 0 15 -2 15 -4z m-890 -21 c-5 -7 -7 -15
-3 -18 3 -4 1 -7 -6 -7 -7 0 -9 -4 -6 -10 10 -16 25 -12 33 9 6 17 9 18 26 5
19 -14 19 -14 -2 -14 -12 0 -22 -4 -22 -10 0 -14 -38 -12 -42 2 -8 22 3 55 18
55 9 0 11 -4 4 -12z m209 -11 c33 -32 46 -41 56 -37 20 6 38 -15 30 -33 -7
-18 -7 -18 -14 -1 -4 10 -10 17 -13 15 -3 -2 -15 5 -27 16 -11 10 -27 16 -36
12 -10 -4 -14 -2 -9 5 4 7 -4 20 -17 30 -18 14 -20 17 -7 15 10 -1 27 -11 37
-22z m991 16 c0 -5 -2 -10 -4 -10 -3 0 -8 5 -11 10 -3 6 -1 10 4 10 6 0 11 -4
11 -10z m140 0 c0 -5 -7 -7 -15 -4 -8 4 -15 8 -15 10 0 2 7 4 15 4 8 0 15 -4
15 -10z m-1260 -8 c0 -5 -7 -9 -15 -9 -8 0 -12 4 -9 9 3 4 9 8 15 8 5 0 9 -4
9 -8z m40 -8 c0 -8 -5 -12 -10 -9 -6 4 -8 11 -5 16 9 14 15 11 15 -7z m17 -16
c-3 -7 -5 -2 -5 12 0 14 2 19 5 13 2 -7 2 -19 0 -25z m791 19 c8 -10 6 -13 -7
-13 -11 0 -17 6 -14 13 3 7 6 13 8 13 1 0 7 -6 13 -13z m-750 -15 c2 -7 -2
-10 -12 -6 -9 3 -16 11 -16 16 0 13 23 5 28 -10z m816 3 c-4 -8 -8 -15 -10
-15 -2 0 -4 7 -4 15 0 8 4 15 10 15 5 0 7 -7 4 -15z m331 -3 c-3 -3 -11 0 -18
7 -9 10 -8 11 6 5 10 -3 15 -9 12 -12z m-30 -1 c3 -5 1 -12 -5 -16 -5 -3 -10
1 -10 9 0 18 6 21 15 7z m-1198 -7 c-3 -3 -12 -4 -19 -1 -8 3 -5 6 6 6 11 1
17 -2 13 -5z m294 -17 c-10 -9 -11 -8 -5 6 3 10 9 15 12 12 3 -3 0 -11 -7 -18z
m123 8 c3 -9 0 -15 -9 -15 -9 0 -12 6 -9 15 4 8 7 15 9 15 2 0 5 -7 9 -15z
m596 -20 c0 -5 -5 -3 -10 5 -5 8 -10 20 -10 25 0 6 5 3 10 -5 5 -8 10 -19 10
-25z m-1130 -21 c0 -19 -15 -18 -35 2 -13 13 -14 19 -4 25 16 9 39 -7 39 -27z
m504 21 c3 -8 1 -15 -4 -15 -6 0 -10 7 -10 15 0 8 2 15 4 15 2 0 6 -7 10 -15z
m439 -11 c-7 -19 -10 -18 -16 5 -3 13 -1 18 9 14 7 -2 10 -11 7 -19z m-707
-20 c-4 -14 -9 -24 -12 -21 -3 2 -2 17 2 31 3 15 9 25 11 22 3 -3 2 -17 -1
-32z m452 11 c1 -17 -3 -25 -14 -25 -14 0 -14 3 -4 15 9 10 9 15 1 15 -6 0
-11 5 -11 10 0 22 26 8 28 -15z m-498 0 c0 -8 -4 -15 -10 -15 -5 0 -7 7 -4 15
4 8 8 15 10 15 2 0 4 -7 4 -15z m90 -9 c0 -11 -19 -15 -25 -6 -3 5 1 10 9 10
9 0 16 -2 16 -4z m-197 -20 c4 -10 1 -13 -8 -9 -8 3 -12 9 -9 14 7 12 11 11
17 -5z m314 -19 c3 -22 3 -22 -13 -2 -11 14 -18 16 -21 8 -6 -18 -23 -16 -23
1 0 8 10 16 23 18 28 5 30 3 34 -25z m337 16 c-5 -15 -3 -15 10 1 9 11 16 16
16 12 0 -4 -9 -19 -19 -32 -13 -16 -21 -20 -23 -12 -6 17 2 48 13 48 5 0 6 -8
3 -17z m-434 -23 c12 -23 12 -24 -3 -11 -10 7 -17 20 -17 29 0 18 3 16 20 -18z
m308 -1 c-3 -8 -7 -3 -11 10 -4 17 -3 21 5 13 5 -5 8 -16 6 -23z m270 5 c2 -1
-1 -5 -7 -8 -5 -4 -15 4 -22 16 -12 22 -11 22 7 8 10 -8 20 -15 22 -16z m-858
-16 c0 -13 -23 -5 -28 10 -2 7 2 10 12 6 9 -3 16 -11 16 -16z m40 0 c0 -6 -6
-5 -15 2 -8 7 -15 14 -15 16 0 2 7 1 15 -2 8 -4 15 -11 15 -16z m120 -13 c14
-19 14 -19 -2 -6 -10 7 -18 18 -18 24 0 6 1 8 3 6 1 -2 9 -13 17 -24z m65 -44
c-16 -15 -17 -15 -8 4 6 11 8 27 6 35 -2 9 1 7 8 -4 9 -14 8 -21 -6 -35z m382
34 c0 -8 -4 -15 -9 -15 -10 0 -11 14 -1 23 9 10 10 9 10 -8z m188 5 c3 -6 -1
-7 -9 -4 -18 7 -21 14 -7 14 6 0 13 -4 16 -10z m-835 -30 c0 -5 -10 -15 -22
-21 -22 -12 -22 -11 -5 8 9 11 14 23 10 28 -5 4 -2 5 5 1 6 -4 12 -11 12 -16z
m358 3 c6 -2 12 1 12 7 0 5 11 -2 25 -16 14 -14 25 -30 25 -37 -1 -7 -10 -1
-21 13 -12 14 -30 25 -42 25 -11 0 -22 7 -24 15 -3 9 -1 11 4 5 4 -5 14 -11
21 -12z m-334 -5 c-5 -7 -2 -9 9 -5 11 4 14 2 10 -9 -4 -11 -9 -12 -19 -3 -12
10 -11 29 2 29 3 0 2 -5 -2 -12z m455 -3 c-3 -24 2 -36 11 -30 6 3 10 1 10 -4
0 -13 -3 -13 -24 -5 -9 3 -14 10 -11 14 3 4 -2 10 -10 14 -8 3 -15 0 -15 -6 0
-9 -3 -9 -11 -1 -6 6 -9 16 -5 21 8 13 56 10 55 -3z m203 -20 c-5 -29 -17 -32
-26 -8 -4 9 -1 20 6 25 21 13 25 9 20 -17z m-152 -10 c0 -8 -4 -15 -10 -15 -5
0 -10 7 -10 15 0 8 5 15 10 15 6 0 10 -7 10 -15z m-537 -10 c-3 -9 -8 -14 -10
-11 -3 3 -2 9 2 15 9 16 15 13 8 -4z m80 2 c3 -8 -1 -14 -8 -14 -7 0 -11 6 -8
14 3 7 6 13 8 13 2 0 5 -6 8 -13z m327 -7 c0 -5 -5 -10 -11 -10 -5 0 -7 5 -4
10 3 6 8 10 11 10 2 0 4 -4 4 -10z m405 -10 c3 -5 1 -10 -4 -10 -6 0 -11 5
-11 10 0 6 2 10 4 10 3 0 8 -4 11 -10z m-492 -15 c-3 -9 -8 -14 -10 -11 -3 3
-2 9 2 15 9 16 15 13 8 -4z m874 -17 c-3 -8 -6 -5 -6 6 -1 11 2 17 5 13 3 -3
4 -12 1 -19z m43 12 c0 -5 -5 -10 -11 -10 -5 0 -7 5 -4 10 3 6 8 10 11 10 2 0
4 -4 4 -10z m-1148 -22 c-9 -9 -15 -9 -24 1 -11 10 -10 11 5 6 10 -5 17 -2 17
6 0 7 3 9 7 6 4 -4 1 -13 -5 -19z m732 1 c-3 -5 -9 -7 -14 -4 -5 3 -11 1 -15
-5 -4 -6 -11 -8 -16 -4 -14 8 22 33 38 27 7 -3 10 -9 7 -14z m-792 -61 c-5
-21 -11 -22 -35 -3 -18 13 -18 14 -1 38 l19 24 10 -21 c6 -12 9 -29 7 -38z
m1114 35 c-10 -10 -19 5 -10 18 6 11 8 11 12 0 2 -7 1 -15 -2 -18z m78 12 c-4
-8 -8 -15 -10 -15 -2 0 -4 7 -4 15 0 8 4 15 10 15 5 0 7 -7 4 -15z m-1098 -21
c9 3 12 1 9 -4 -3 -6 -1 -10 5 -10 6 0 8 -5 5 -11 -5 -7 -14 -4 -26 7 -10 9
-19 13 -19 9 0 -5 -2 -6 -5 -3 -3 3 -2 14 2 24 7 18 8 18 11 1 2 -11 9 -16 18
-13z m404 6 c0 -5 -2 -10 -4 -10 -3 0 -8 5 -11 10 -3 6 -1 10 4 10 6 0 11 -4
11 -10z m45 0 c3 -5 -3 -10 -15 -10 -12 0 -18 5 -15 10 3 6 10 10 15 10 5 0
12 -4 15 -10z m-380 -10 c3 -5 2 -10 -4 -10 -5 0 -13 5 -16 10 -3 6 -2 10 4
10 5 0 13 -4 16 -10z m905 -11 c0 -5 -7 -9 -15 -9 -9 0 -12 6 -9 15 6 15 24
11 24 -6z m-893 -15 c-3 -3 -12 -4 -19 -1 -8 3 -5 6 6 6 11 1 17 -2 13 -5z
m-207 -29 c0 -2 -6 -2 -14 1 -7 3 -16 -2 -19 -10 -4 -9 -2 -16 3 -16 6 0 10
-6 10 -14 0 -8 8 -22 18 -32 9 -10 16 -19 15 -22 -5 -12 -40 -31 -57 -32 -20
0 -13 15 7 15 7 1 11 7 9 14 -1 7 2 10 8 6 15 -10 12 12 -5 29 -15 14 -20 34
-17 69 2 15 6 16 22 7 11 -6 20 -13 20 -15z m92 3 c-14 -14 -74 -19 -69 -5 2
7 12 11 21 11 9 -1 16 2 16 6 0 5 9 6 21 3 12 -3 17 -9 11 -15z m278 7 c0 -12
-19 -12 -23 0 -4 9 -1 12 9 8 7 -3 14 -7 14 -8z m325 5 c3 -5 1 -10 -4 -10 -6
0 -11 5 -11 10 0 6 2 10 4 10 3 0 8 -4 11 -10z m-205 -4 c0 -3 -4 -8 -10 -11
-5 -3 -10 -1 -10 4 0 6 5 11 10 11 6 0 10 -2 10 -4z m-170 -26 c-13 -11 -27
-20 -32 -20 -14 0 26 38 41 39 9 1 5 -7 -9 -19z m660 10 c0 -5 -10 -15 -22
-21 -23 -12 -23 -12 -4 10 21 23 26 26 26 11z m30 -15 c0 -8 -4 -15 -10 -15
-5 0 -10 7 -10 15 0 8 5 15 10 15 6 0 10 -7 10 -15z m-766 -20 c-6 -16 -24
-21 -24 -7 0 11 11 22 21 22 5 0 6 -7 3 -15z m906 -21 c0 -8 -4 -12 -10 -9 -5
3 -10 10 -10 16 0 5 5 9 10 9 6 0 10 -7 10 -16z m-1113 -16 c-3 -8 -6 -5 -6 6
-1 11 2 17 5 13 3 -3 4 -12 1 -19z m93 -30 c0 -6 -6 -5 -15 2 -8 7 -15 14 -15
16 0 2 7 1 15 -2 8 -4 15 -11 15 -16z m-83 -5 c-4 -3 -1 -13 6 -22 11 -14 10
-14 -5 -2 -16 12 -16 31 -1 31 4 0 3 -3 0 -7z m253 -23 c0 -13 -11 -13 -30 0
-12 8 -11 10 8 10 12 0 22 -4 22 -10z m211 -28 c-6 -2 -8 -9 -5 -15 4 -7 1 -6
-7 2 -11 10 -11 15 -1 18 6 3 13 12 13 21 1 13 3 12 6 -3 3 -10 0 -21 -6 -23z
m-504 22 c-8 -8 -48 -13 -43 -6 2 4 14 8 26 9 12 1 20 0 17 -3z m102 -27 c-13
-12 -29 -33 -35 -47 -10 -23 -11 -22 -10 16 0 29 4 40 13 37 7 -3 20 2 29 12
9 9 19 13 22 10 3 -3 -5 -16 -19 -28z m188 -55 c-1 -3 -10 -8 -20 -9 -10 -2
-15 1 -12 7 8 13 -4 50 -16 50 -5 0 -9 -8 -10 -17 0 -15 -2 -15 -8 2 -14 34
12 36 41 4 15 -16 26 -33 25 -37z m-296 47 c13 -6 18 -16 15 -26 -6 -14 -4
-14 10 -2 16 13 16 12 6 -6 -6 -11 -19 -30 -29 -43 -17 -21 -19 -21 -30 -3
-10 15 -9 18 4 17 22 -1 25 35 6 56 -18 20 -11 23 18 7z m154 -39 c3 -5 -1
-10 -9 -10 -9 0 -16 5 -16 10 0 6 4 10 9 10 6 0 13 -4 16 -10z m263 -3 c14 6
15 5 2 -9 -15 -16 -31 -7 -29 17 0 6 3 5 5 -2 3 -7 13 -9 22 -6z m252 4 c0 -6
-4 -13 -10 -16 -5 -3 -10 1 -10 9 0 9 5 16 10 16 6 0 10 -4 10 -9z m-180 -34
c0 -5 -10 -5 -22 -1 -29 8 -31 10 -24 23 8 12 46 -7 46 -22z m181 -10 c-10 -9
-11 -8 -5 6 3 10 9 15 12 12 3 -3 0 -11 -7 -18z m-647 -23 c-5 -19 -4 -25 5
-20 7 5 11 -1 11 -14 0 -12 -4 -19 -9 -16 -5 3 -12 -1 -15 -10 -3 -8 -10 -12
-16 -9 -5 3 -10 4 -10 0 0 -14 46 -22 60 -10 23 19 60 26 53 9 -3 -8 -9 -12
-13 -9 -12 7 -40 -5 -40 -17 0 -6 7 -8 14 -5 11 4 13 1 9 -11 -6 -16 -5 -16
14 1 29 25 38 21 38 -17 0 -27 -6 -38 -26 -50 -24 -14 -28 -14 -47 4 -27 25
-30 25 -53 -2 -10 -13 -18 -18 -19 -12 0 6 7 17 15 24 28 23 16 47 -20 40 -5
-1 -4 4 3 11 16 17 16 32 -1 26 -7 -3 -19 4 -27 16 -9 15 -10 22 -1 25 6 2 9
7 6 12 -3 4 3 6 13 3 14 -3 22 4 32 26 15 38 33 41 24 5z m64 -6 c4 2 8 -1 10
-7 2 -6 -1 -11 -7 -11 -14 0 -51 32 -51 44 0 5 9 1 21 -10 12 -10 24 -18 27
-16z m70 20 c-3 -7 -13 -15 -24 -17 -16 -3 -17 -1 -5 13 16 19 34 21 29 4z
m267 2 c3 -5 1 -10 -4 -10 -6 0 -11 5 -11 10 0 6 2 10 4 10 3 0 8 -4 11 -10z
m615 -5 c0 -8 -2 -15 -4 -15 -2 0 -6 7 -10 15 -3 8 -1 15 4 15 6 0 10 -7 10
-15z m-779 -28 c10 3 19 0 19 -6 0 -5 -6 -8 -14 -5 -7 3 -16 -2 -19 -10 -4 -9
-12 -16 -19 -16 -10 0 -10 2 -1 8 7 5 9 13 3 21 -4 8 -5 21 -2 30 6 13 7 12
10 -5 2 -16 8 -20 23 -17z m34 23 c3 -6 -1 -7 -9 -4 -18 7 -21 14 -7 14 6 0
13 -4 16 -10z m65 -19 c0 -11 5 -23 10 -26 18 -11 -1 -25 -26 -19 -17 5 -24 2
-24 -9 0 -18 -33 -12 -51 9 -10 12 -8 13 15 5 25 -10 31 -7 26 14 -1 5 2 7 6
3 11 -12 34 11 27 28 -3 8 0 14 6 14 6 0 11 -9 11 -19z m-167 -11 c-6 -24 -19
-34 -27 -21 -4 5 1 17 10 25 20 21 23 20 17 -4z m243 -62 c-2 -13 4 -31 12
-41 14 -16 14 -17 0 -12 -10 4 -24 -1 -35 -14 -26 -32 -37 -25 -14 8 23 32 27
51 11 51 -5 0 -10 7 -10 15 0 8 9 15 20 15 15 0 19 -5 16 -22z m514 12 c0 -5
-4 -10 -10 -10 -5 0 -10 5 -10 10 0 6 5 10 10 10 6 0 10 -4 10 -10z m540 6 c0
-3 -4 -8 -10 -11 -5 -3 -10 -1 -10 4 0 6 5 11 10 11 6 0 10 -2 10 -4z m-1123
-31 c-4 -8 -11 -15 -17 -15 -6 0 -6 7 2 20 14 22 24 19 15 -5z m-107 -10 c0
-8 7 -15 15 -15 8 0 15 -4 15 -10 0 -22 -33 -5 -43 23 -3 9 -2 17 3 17 6 0 10
-7 10 -15z m140 -5 c0 -5 -2 -10 -4 -10 -3 0 -8 5 -11 10 -3 6 -1 10 4 10 6 0
11 -4 11 -10z m100 -20 c0 -5 -2 -10 -4 -10 -3 0 -8 5 -11 10 -3 6 -1 10 4 10
6 0 11 -4 11 -10z m56 -4 c-3 -25 -28 -48 -39 -37 -7 7 -3 17 13 31 27 24 29
24 26 6z m-556 0 c0 -3 -4 -8 -10 -11 -5 -3 -10 -1 -10 4 0 6 5 11 10 11 6 0
10 -2 10 -4z m230 -21 c0 -8 -7 -15 -15 -15 -26 0 -18 20 13 29 1 1 2 -6 2
-14z m137 -17 c-3 -8 -6 -5 -6 6 -1 11 2 17 5 13 3 -3 4 -12 1 -19z m300 -49
c2 -16 -1 -19 -9 -11 -5 5 -7 15 -4 21 10 15 12 14 13 -10z m-63 2 c3 -5 -1
-11 -9 -14 -9 -4 -12 -1 -8 9 6 16 10 17 17 5z m-435 -32 c-8 -5 -16 -3 -21 4
-4 7 0 15 10 18 21 8 30 -10 11 -22z m226 22 c3 -6 -3 -9 -14 -8 -11 0 -17 5
-15 9 7 11 22 10 29 -1z"/>
<path d="M1096 1995 c-3 -8 -12 -12 -21 -9 -18 7 -20 -3 -2 -21 6 -7 20 -22
29 -34 24 -28 38 -27 38 4 0 14 -4 25 -10 25 -5 0 -10 -7 -10 -17 0 -21 -9
-12 -15 15 -2 12 1 21 7 19 17 -3 21 20 4 26 -8 3 -17 -1 -20 -8z"/>
<path d="M1114 1752 c-6 -4 -4 -13 8 -24 9 -10 20 -14 22 -9 8 13 -18 42 -30
33z"/>
<path d="M681 2027 c2 -1 14 -11 27 -21 12 -11 22 -16 22 -13 0 10 -31 37 -42
37 -6 0 -9 -1 -7 -3z"/>
<path d="M1412 1591 c7 -11 16 -17 20 -14 10 5 -10 33 -23 33 -5 0 -4 -9 3
-19z"/>
<path d="M446 1583 c-2 -3 -2 -12 1 -21 4 -15 3 -15 -6 -2 -10 13 -12 13 -20
0 -12 -18 -3 -33 15 -26 7 3 16 1 19 -5 4 -5 11 -6 17 -3 7 4 8 2 4 -5 -4 -6
-12 -8 -18 -5 -6 4 -8 1 -6 -7 3 -8 11 -13 18 -11 11 2 11 0 1 -11 -9 -12 -9
-16 1 -20 9 -4 10 -6 1 -6 -7 -1 -17 8 -23 18 -11 21 -50 25 -50 4 0 -19 47
-66 55 -53 3 5 1 10 -4 10 -6 0 -11 4 -11 10 0 6 9 6 26 0 14 -6 26 -10 28
-10 1 0 2 15 2 34 -1 19 -5 31 -10 28 -5 -3 -6 2 -3 12 4 10 1 19 -8 22 -8 4
-15 10 -15 15 0 4 6 6 14 3 18 -7 30 12 14 23 -16 10 -35 13 -42 6z m-6 -103
c0 -5 -2 -10 -4 -10 -3 0 -8 5 -11 10 -3 6 -1 10 4 10 6 0 11 -4 11 -10z"/>
<path d="M516 1552 c2 -15 1 -21 -2 -14 -8 17 -25 15 -18 -2 3 -8 13 -14 23
-13 13 1 16 7 13 24 -6 33 -20 38 -16 5z"/>
<path d="M285 1496 c-10 -14 -21 -23 -26 -20 -8 5 -14 -18 -10 -40 1 -4 -3
-14 -10 -22 -13 -16 -4 -48 12 -39 6 4 8 13 6 19 -3 7 -1 19 5 27 8 12 9 12 5
-1 -2 -8 4 -24 14 -34 11 -11 19 -15 19 -10 0 6 -5 15 -11 21 -14 14 -3 34 15
27 8 -3 17 4 21 18 10 27 14 70 7 63 -3 -3 -11 0 -18 6 -9 8 -17 4 -29 -15z
m45 -16 c0 -5 -5 -10 -11 -10 -6 0 -17 -7 -26 -15 -8 -9 -17 -14 -19 -12 -7 7
7 37 15 33 4 -3 13 -1 21 5 19 11 20 11 20 -1z"/>
<path d="M295 1360 c-11 -5 -14 -9 -7 -9 10 -1 10 -5 0 -20 -7 -11 -15 -18
-19 -15 -4 2 -10 -3 -13 -12 -9 -24 -8 -26 14 -14 11 6 20 18 20 28 0 13 2 14
9 3 6 -9 10 -4 13 18 2 17 4 31 4 30 -1 0 -10 -4 -21 -9z"/>
<path d="M1152 1331 c-15 -21 -18 -32 -10 -37 7 -4 8 -3 4 4 -4 7 -1 12 9 12
9 0 14 4 11 9 -4 5 -1 11 5 13 7 2 10 10 8 17 -3 7 -13 0 -27 -18z"/>
<path d="M382 1219 c2 -6 8 -10 13 -10 6 0 14 -7 18 -15 4 -8 12 -14 18 -14
15 0 -24 49 -39 50 -8 0 -12 -5 -10 -11z"/>
<path d="M327 1114 c-4 -4 -7 -14 -7 -23 0 -11 3 -12 11 -4 6 6 10 16 7 23 -2
6 -7 8 -11 4z"/>
<path d="M80 610 c0 -5 4 -10 9 -10 6 0 13 5 16 10 3 6 -1 10 -9 10 -9 0 -16
-4 -16 -10z"/>
<path d="M75 180 c-3 -5 1 -10 9 -10 9 0 16 -4 16 -10 0 -5 5 -10 10 -10 12 0
9 22 -5 32 -14 10 -23 10 -30 -2z"/>
<path d="M155 120 c-3 -5 -1 -10 4 -10 6 0 11 5 11 10 0 6 -2 10 -4 10 -3 0
-8 -4 -11 -10z"/>
<path d="M30 3166 c0 -2 8 -10 18 -17 15 -13 16 -12 3 4 -13 16 -21 21 -21 13z"/>
<path d="M85 3159 c-4 -6 -5 -12 -2 -15 2 -3 7 2 10 11 7 17 1 20 -8 4z"/>
<path d="M50 3096 c0 -2 8 -10 18 -17 15 -13 16 -12 3 4 -13 16 -21 21 -21 13z"/>
<path d="M91 3064 c0 -11 3 -14 6 -6 3 7 2 16 -1 19 -3 4 -6 -2 -5 -13z"/>
<path d="M170 3053 c0 -12 5 -23 11 -23 6 0 9 6 6 14 -3 7 -1 18 4 23 6 6 4
10 -6 10 -9 0 -15 -9 -15 -24z"/>
<path d="M30 3053 c18 -9 11 -22 -10 -18 -21 4 -28 -19 -10 -30 5 -3 10 1 10
9 0 9 6 15 13 14 6 -2 12 3 12 11 0 8 -6 15 -13 17 -7 1 -8 0 -2 -3z"/>
<path d="M45 3007 c-12 -9 -14 -16 -7 -21 6 -3 16 3 22 14 13 24 10 25 -15 7z"/>
<path d="M98 3015 c-4 -6 -3 -17 2 -25 8 -13 11 -13 22 -1 8 9 8 11 1 7 -6 -3
-13 1 -15 11 -2 11 -6 14 -10 8z"/>
<path d="M146 2997 c3 -10 9 -15 12 -12 3 3 0 11 -7 18 -10 9 -11 8 -5 -6z"/>
<path d="M220 3004 c0 -5 10 -15 23 -23 12 -7 19 -10 15 -6 -4 5 -2 15 5 24
10 14 10 14 -4 4 -12 -10 -18 -10 -27 -1 -7 7 -12 8 -12 2z"/>
<path d="M291 2984 c0 -11 3 -14 6 -6 3 7 2 16 -1 19 -3 4 -6 -2 -5 -13z"/>
<path d="M220 2974 c0 -20 27 -37 36 -23 4 7 3 9 -4 5 -6 -3 -15 2 -21 11 -6
10 -11 13 -11 7z"/>
<path d="M103 2954 c-3 -8 4 -25 16 -38 12 -12 18 -26 14 -29 -3 -4 -1 -7 6
-7 7 0 9 -5 5 -12 -4 -7 -3 -8 4 -4 14 8 4 36 -21 58 -11 10 -17 24 -13 33 3
8 3 15 0 15 -2 0 -7 -7 -11 -16z"/>
<path d="M175 2960 c-4 -7 0 -19 9 -28 13 -14 16 -14 16 -2 0 25 -16 44 -25
30z"/>
<path d="M76 2945 c4 -8 8 -15 10 -15 2 0 4 7 4 15 0 8 -4 15 -10 15 -5 0 -7
-7 -4 -15z"/>
<path d="M290 2940 c0 -11 -4 -20 -8 -20 -5 0 -9 -7 -9 -17 0 -13 4 -11 19 7
20 24 24 50 8 50 -5 0 -10 -9 -10 -20z"/>
<path d="M357 2915 c9 -19 18 -33 21 -31 4 5 -26 66 -33 66 -3 0 3 -16 12 -35z"/>
<path d="M150 2937 c0 -15 30 -78 43 -92 17 -16 28 -10 20 11 -3 8 1 14 11 14
18 0 22 15 6 25 -6 4 -8 10 -6 14 3 4 1 13 -5 21 -6 11 -9 8 -9 -12 0 -14 5
-28 10 -30 6 -2 2 -8 -8 -14 -15 -10 -18 -8 -19 9 -2 19 -43 71 -43 54z"/>
<path d="M319 2938 c-1 -2 -2 -18 -4 -36 -2 -26 0 -30 11 -21 9 8 11 17 4 29
-5 9 -6 20 -3 24 3 3 3 6 0 6 -4 0 -8 -1 -8 -2z"/>
<path d="M67 2913 c-13 -12 -7 -23 11 -22 10 0 12 3 4 6 -6 2 -10 9 -6 14 6
10 0 12 -9 2z"/>
<path d="M388 2875 c-4 -19 -2 -23 7 -15 8 6 16 5 25 -3 7 -6 5 0 -5 16 -9 15
-19 27 -20 27 -1 0 -5 -11 -7 -25z"/>
<path d="M420 2896 c0 -2 8 -10 18 -17 15 -13 16 -12 3 4 -13 16 -21 21 -21
13z"/>
<path d="M37 2873 c-4 -3 -7 -13 -7 -21 0 -9 3 -12 7 -9 3 4 12 2 20 -4 8 -7
13 -8 13 -1 0 5 -7 13 -16 16 -8 3 -12 10 -9 16 7 11 2 13 -8 3z"/>
<path d="M119 2853 c12 -24 31 -39 31 -25 0 5 -10 17 -21 28 -22 19 -22 19
-10 -3z"/>
<path d="M265 2861 c-3 -5 4 -16 14 -23 14 -10 18 -21 14 -36 -3 -12 -9 -20
-12 -17 -4 2 -8 -2 -8 -10 0 -11 4 -12 13 -4 8 7 13 6 16 -3 3 -8 7 -6 11 6 4
10 3 15 -3 11 -6 -3 -10 1 -10 9 0 8 4 18 10 21 6 4 5 11 -3 19 -6 8 -16 11
-21 8 -5 -3 -7 2 -3 11 7 18 -8 24 -18 8z"/>
<path d="M348 2840 c9 -16 18 -28 19 -26 6 6 -11 45 -22 50 -10 3 -9 -3 3 -24z"/>
<path d="M232 2848 c2 -6 10 -13 16 -14 7 -1 8 0 2 3 -5 2 -8 9 -4 14 3 5 0 9
-6 9 -7 0 -10 -5 -8 -12z"/>
<path d="M6 2821 c-3 -5 1 -11 9 -15 8 -3 15 -1 15 4 0 13 -18 22 -24 11z"/>
<path d="M220 2820 c0 -6 7 -10 15 -10 8 0 15 2 15 4 0 2 -7 6 -15 10 -8 3
-15 1 -15 -4z"/>
<path d="M450 2826 c0 -2 7 -6 15 -10 8 -3 15 -1 15 4 0 6 -7 10 -15 10 -8 0
-15 -2 -15 -4z"/>
<path d="M46 2801 c-10 -10 -14 -21 -9 -24 5 -3 13 6 20 19 13 29 11 30 -11 5z"/>
<path d="M406 2805 c-9 -26 -7 -32 5 -12 6 10 9 21 6 23 -2 3 -7 -2 -11 -11z"/>
<path d="M125 2800 c-4 -6 -12 -7 -18 -4 -7 4 -9 3 -4 -1 4 -5 0 -16 -8 -25
-13 -14 -13 -17 0 -17 8 0 12 4 9 9 -4 7 8 12 26 10 3 0 6 8 6 19 0 22 -2 23
-11 9z"/>
<path d="M150 2798 c0 -4 4 -8 9 -8 6 0 12 4 15 8 3 5 -1 9 -9 9 -8 0 -15 -4
-15 -9z"/>
<path d="M220 2791 c0 -5 5 -13 10 -16 6 -3 10 -2 10 4 0 5 -4 13 -10 16 -5 3
-10 2 -10 -4z"/>
<path d="M441 2792 c-1 -7 -5 -11 -10 -8 -5 3 -8 -2 -7 -12 0 -9 -4 -16 -11
-15 -6 1 -17 -5 -25 -15 -12 -15 -11 -16 5 -3 14 11 17 11 17 0 0 -9 4 -8 13
3 6 9 17 17 23 19 7 3 8 12 3 24 -4 11 -8 14 -8 7z"/>
<path d="M469 2798 c-6 -12 -4 -48 2 -48 5 0 8 11 7 25 -2 22 -5 30 -9 23z"/>
<path d="M568 2759 c24 -26 30 -38 20 -42 -8 -4 -9 -6 -1 -6 26 -2 20 18 -15
50 l-37 34 33 -36z"/>
<path d="M327 2745 c5 -24 33 -37 33 -14 0 5 -5 7 -11 4 -6 -4 -9 0 -7 10 2
10 -2 20 -8 22 -7 2 -10 -5 -7 -22z"/>
<path d="M516 2761 c-3 -5 1 -14 9 -21 8 -7 12 -17 8 -23 -4 -6 -1 -7 6 -3 9
6 9 12 -3 25 -9 10 -13 21 -9 24 3 4 4 7 0 7 -3 0 -8 -4 -11 -9z"/>
<path d="M245 2750 c3 -5 8 -10 11 -10 2 0 4 5 4 10 0 6 -5 10 -11 10 -5 0 -7
-4 -4 -10z"/>
<path d="M279 2728 c-9 -16 -9 -23 0 -26 6 -2 11 -12 11 -22 0 -21 33 -44 45
-32 5 4 6 0 3 -9 -4 -9 -1 -16 7 -16 10 0 11 5 5 17 -6 11 -5 21 2 28 9 9 9
12 1 12 -6 0 -14 8 -16 18 -4 16 -5 16 -6 -1 0 -10 -5 -15 -11 -12 -6 3 -7 -1
-4 -9 3 -9 2 -16 -4 -16 -11 0 -11 18 2 38 4 7 4 12 -1 11 -27 -5 -33 2 -23
21 6 11 8 20 6 20 -3 0 -11 -10 -17 -22z m52 -71 c-10 -9 -11 -8 -5 6 3 10 9
15 12 12 3 -3 0 -11 -7 -18z"/>
<path d="M434 2739 c-4 -7 -3 -9 4 -5 5 3 13 0 15 -6 4 -9 6 -10 6 -1 1 17
-16 25 -25 12z"/>
<path d="M140 2731 c0 -5 5 -13 10 -16 6 -3 10 -2 10 4 0 5 -4 13 -10 16 -5 3
-10 2 -10 -4z"/>
<path d="M174 2714 c-7 -26 10 -49 28 -38 14 9 21 -27 8 -39 -10 -10 -12 -8
-7 6 5 14 3 16 -12 8 -10 -6 -21 -8 -24 -5 -3 3 -8 1 -12 -5 -4 -7 4 -11 19
-12 51 -3 51 -3 40 -34 -3 -8 -11 -12 -17 -8 -6 3 -7 1 -3 -6 6 -8 12 -9 20
-2 13 11 26 5 26 -11 0 -5 -4 -6 -10 -3 -5 3 -10 1 -10 -5 0 -6 8 -10 18 -8
13 2 16 -3 14 -23 -3 -23 1 -26 24 -26 16 0 21 2 14 7 -7 4 -10 15 -7 23 7 18
-16 52 -34 52 -7 0 -13 10 -14 23 -2 26 7 28 25 7 7 -8 17 -15 23 -15 5 0 0 9
-12 19 -12 11 -22 22 -21 26 1 4 -2 10 -6 13 -4 4 -4 1 0 -5 4 -7 2 -13 -3
-13 -6 0 -11 7 -11 15 0 8 6 15 13 15 9 0 9 2 -1 9 -7 4 -15 17 -17 27 -6 30
-7 30 -13 6 -9 -30 -28 -28 -25 4 2 32 -5 31 -13 -2z m98 -186 c-2 -10 -7 -18
-9 -18 -3 0 -3 9 0 20 3 11 1 23 -4 26 -5 3 -9 10 -9 17 0 6 6 2 14 -8 7 -10
11 -27 8 -37z"/>
<path d="M470 2733 c0 -5 5 -15 10 -23 7 -12 9 -10 7 8 -1 19 -17 33 -17 15z"/>
<path d="M59 2706 c14 -15 26 -26 28 -26 9 0 -24 40 -37 45 -8 4 -4 -5 9 -19z"/>
<path d="M103 2693 c0 -21 1 -23 9 -9 5 9 14 13 21 9 7 -4 6 0 -2 10 -19 24
-28 21 -28 -10z"/>
<path d="M396 2705 c-3 -8 0 -17 6 -21 6 -4 8 -3 4 4 -3 5 -1 12 6 14 8 3 9 6
1 11 -6 4 -13 0 -17 -8z"/>
<path d="M246 2701 c-4 -6 -2 -11 3 -11 6 0 11 -8 12 -17 0 -10 3 -13 5 -6 8
18 -11 49 -20 34z"/>
<path d="M592 2679 c-7 -12 -11 -24 -8 -27 3 -3 6 1 6 9 0 12 2 12 9 0 6 -9 9
-5 9 13 0 31 0 31 -16 5z"/>
<path d="M630 2690 c0 -5 5 -10 11 -10 5 0 7 5 4 10 -3 6 -8 10 -11 10 -2 0
-4 -4 -4 -10z"/>
<path d="M431 2678 c1 -7 5 -24 10 -38 8 -22 8 -21 5 9 l-3 33 18 -23 c21 -27
25 -44 7 -33 -7 4 -8 3 -4 -5 4 -6 12 -8 18 -5 7 5 8 2 3 -5 -4 -7 -8 -30 -9
-51 -2 -30 1 -37 13 -32 9 3 12 1 7 -7 -5 -7 -2 -10 6 -9 24 5 27 21 8 46 -20
24 -17 49 8 68 13 9 12 12 -2 17 -9 4 -14 3 -11 -2 3 -5 1 -12 -5 -16 -9 -6
-14 8 -11 28 1 5 -3 6 -9 2 -5 -3 -10 -1 -10 4 0 6 5 11 12 11 19 0 2 11 -26
16 -17 3 -26 0 -25 -8z m74 -128 c16 -17 16 -20 3 -15 -9 4 -19 13 -22 21 -7
19 -2 18 19 -6z"/>
<path d="M67 2669 c7 -7 15 -10 18 -7 3 3 -2 9 -12 12 -14 6 -15 5 -6 -5z"/>
<path d="M9 2668 c-5 -8 -5 -78 -1 -73 6 5 10 75 5 75 -2 0 -4 -1 -4 -2z"/>
<path d="M376 2661 c-12 -5 -15 -10 -9 -14 6 -4 16 0 23 8 14 17 13 17 -14 6z"/>
<path d="M624 2648 c-10 -13 -15 -19 -9 -15 5 4 15 -3 23 -15 7 -13 11 -15 8
-5 -3 9 -1 17 3 17 10 0 9 25 0 35 -3 3 -14 -5 -25 -17z"/>
<path d="M35 2640 c-3 -5 -3 -15 0 -20 3 -6 -3 -22 -14 -36 -25 -32 -27 -60
-5 -68 9 -4 17 -5 18 -4 1 2 7 14 14 28 l13 25 -19 -22 c-18 -20 -20 -21 -24
-5 -6 23 1 44 13 36 5 -3 9 3 9 12 0 16 1 16 16 -2 8 -10 13 -14 10 -7 -4 6
-1 13 6 15 8 3 8 9 -1 24 -10 15 -11 15 -7 2 3 -10 1 -18 -3 -18 -12 0 -23 29
-15 41 3 5 3 9 0 9 -3 0 -8 -4 -11 -10z"/>
<path d="M113 2633 c-4 -10 -11 -21 -17 -25 -7 -5 -7 -8 -1 -8 18 0 32 15 32
33 0 9 -2 17 -4 17 -2 0 -7 -8 -10 -17z"/>
<path d="M380 2625 c-7 -9 -11 -17 -8 -20 2 -2 12 4 21 15 9 11 13 20 8 20 -5
0 -14 -7 -21 -15z"/>
<path d="M585 2630 c-3 -5 -1 -10 4 -10 6 0 11 5 11 10 0 6 -2 10 -4 10 -3 0
-8 -4 -11 -10z"/>
<path d="M700 2621 c0 -6 1 -13 3 -15 1 -2 -7 -14 -18 -26 -16 -18 -17 -23 -5
-30 8 -6 20 -10 25 -10 6 1 2 5 -8 11 -9 6 -15 15 -12 20 4 5 10 7 15 4 5 -3
7 4 5 16 -3 15 0 19 11 15 9 -3 17 -6 20 -6 2 0 1 -8 -2 -17 -5 -16 -4 -16 6
-3 9 12 11 10 7 -12 -3 -19 0 -28 9 -28 8 0 14 -5 14 -11 0 -5 -5 -7 -12 -3
-7 5 -8 3 -4 -5 6 -9 12 -9 25 3 10 9 20 15 22 14 9 -6 -67 68 -83 81 -12 9
-18 10 -18 2z"/>
<path d="M165 2578 c5 -40 5 -42 -10 -24 -8 11 -15 23 -15 27 0 4 -9 7 -19 6
-11 0 -17 -5 -15 -9 3 -5 10 -6 15 -3 5 4 9 4 9 1 0 -2 3 -12 6 -21 9 -21 -15
-16 -37 9 -15 19 -16 19 -21 -2 -5 -17 -1 -23 18 -28 13 -3 26 -14 29 -24 3
-10 13 -21 21 -24 8 -3 12 -11 8 -17 -5 -8 -13 -4 -25 12 -16 20 -19 21 -19 6
0 -10 -4 -16 -10 -12 -5 3 -5 -7 1 -25 13 -37 22 -40 13 -4 -5 20 -3 25 6 22
8 -2 14 -14 15 -26 2 -25 44 -71 46 -50 0 7 7 -1 15 -19 19 -45 28 -46 40 -8
6 19 7 32 3 30 -4 -3 -10 1 -13 7 -3 7 -3 3 -1 -9 4 -12 0 -25 -7 -29 -7 -4
-10 -4 -6 0 8 9 -22 46 -38 46 -21 0 -39 29 -26 42 9 9 12 8 12 -4 0 -9 5 -20
12 -24 7 -5 9 -2 5 9 -4 12 0 15 19 13 45 -5 69 -46 65 -111 -1 -17 -3 -18
-11 -5 -5 8 -10 10 -10 4 0 -6 10 -19 22 -30 13 -10 18 -12 12 -4 -7 8 -8 24
-4 35 7 20 7 20 14 -2 4 -11 14 -24 23 -28 15 -5 15 -4 0 13 -22 24 -22 38 1
21 15 -13 16 -12 4 3 -8 10 -19 16 -25 15 -6 -1 -13 7 -15 18 -4 17 -2 18 12
6 14 -12 16 -12 10 3 -7 18 6 22 22 6 8 -8 15 -6 23 4 8 10 9 16 1 21 -6 4
-10 3 -9 -2 4 -21 -3 -22 -28 -6 -15 10 -24 12 -20 6 5 -7 4 -13 -1 -13 -15 0
-33 26 -24 35 4 5 0 4 -8 0 -13 -8 -13 -7 -1 8 8 10 11 21 7 24 -4 4 -11 1
-16 -7 -8 -12 -10 -12 -10 -1 0 11 -3 11 -15 1 -13 -11 -20 -9 -40 10 -13 12
-21 28 -18 36 4 10 0 12 -11 8 -9 -3 -16 -1 -16 4 0 20 15 20 38 2 12 -10 17
-20 11 -22 -6 -2 -3 -10 8 -20 17 -14 19 -14 36 2 14 13 15 20 6 26 -7 4 -10
3 -6 -3 4 -6 0 -14 -9 -17 -13 -5 -15 -2 -11 14 3 10 0 18 -5 17 -6 -1 -12 5
-13 14 -2 9 -6 31 -10 48 -6 27 -4 30 11 24 12 -4 15 -3 10 5 -4 7 -14 12 -22
12 -13 0 -15 -8 -9 -42z"/>
<path d="M300 2606 c0 -8 4 -17 9 -20 5 -4 7 3 4 14 -6 23 -13 26 -13 6z"/>
<path d="M400 2608 c0 -7 5 -20 11 -28 9 -12 10 -12 5 4 -4 11 -1 23 6 28 10
6 8 8 -4 8 -10 0 -18 -6 -18 -12z"/>
<path d="M604 2605 c-5 -12 -10 -13 -20 -4 -10 8 -14 8 -14 0 0 -6 4 -11 8
-11 13 0 10 -30 -2 -31 -33 -4 -72 21 -58 36 4 5 1 5 -6 1 -13 -8 -11 -11 52
-81 6 -6 7 -4 3 7 -10 28 5 29 20 2 16 -32 16 -37 1 -29 -7 4 -6 1 3 -7 24
-20 33 -56 18 -74 -11 -13 -10 -18 4 -25 9 -6 17 -18 18 -27 0 -10 3 -12 6 -4
2 6 9 12 14 12 6 0 7 -5 3 -12 -4 -7 -3 -8 5 -4 7 4 15 -2 20 -16 7 -16 10
-18 10 -6 1 9 -4 20 -9 23 -7 4 -6 13 1 26 9 18 8 19 -10 7 -17 -11 -23 -10
-37 4 -16 16 -11 43 7 33 5 -4 5 5 -1 20 -7 17 -7 32 0 43 6 11 9 12 10 4 0
-18 20 -4 29 21 7 17 9 18 14 4 3 -9 0 -23 -8 -30 -10 -11 -11 -17 -2 -26 8
-8 7 -11 -6 -11 -9 0 -17 5 -17 12 0 6 -2 9 -5 7 -2 -3 0 -18 4 -35 6 -16 10
-21 10 -11 1 10 6 15 11 12 6 -3 11 -1 11 4 1 6 3 16 4 21 1 6 3 17 4 26 0 9
6 12 13 8 7 -4 8 -3 4 4 -4 7 -1 12 6 12 7 1 2 7 -12 15 -33 19 -37 18 -43 -4
-4 -16 -30 -22 -44 -11 -2 2 -9 3 -15 4 -8 1 -13 15 -13 36 1 21 5 34 13 33 7
-2 9 4 5 14 -5 12 -3 14 7 8 9 -5 11 -4 6 3 -10 16 -15 15 -22 -3z m26 -115
c0 -5 -4 -10 -10 -10 -5 0 -10 5 -10 10 0 6 5 10 10 10 6 0 10 -4 10 -10z"/>
<path d="M334 2591 c3 -5 -1 -15 -10 -22 -13 -10 -17 -10 -25 2 -5 8 -9 9 -9
4 0 -6 4 -15 9 -20 5 -6 11 -19 14 -30 4 -15 5 -14 6 7 0 15 6 30 11 33 6 4 8
-6 5 -28 -5 -29 -3 -35 15 -40 15 -4 19 -2 12 6 -18 24 -21 45 -5 51 12 5 14
1 10 -14 -8 -32 27 -89 56 -90 4 0 7 10 6 23 0 18 -2 19 -7 5 -15 -36 -40 18
-45 95 -1 17 -2 17 -14 1 -12 -17 -13 -16 -13 4 0 12 -5 22 -11 22 -5 0 -8 -4
-5 -9z"/>
<path d="M444 2560 c2 -14 -1 -31 -6 -37 -7 -9 -7 -17 0 -26 6 -7 9 -23 5 -35
-3 -13 -1 -22 6 -22 6 0 11 -5 11 -11 0 -5 -4 -7 -10 -4 -18 11 -10 -15 10
-32 21 -19 28 -39 8 -27 -8 5 -9 2 -4 -12 10 -26 10 -26 1 -57 l-7 -28 -18 28
c-11 19 -13 30 -6 35 6 4 14 2 18 -5 6 -9 8 -9 8 0 0 6 -4 15 -10 18 -5 3 -10
17 -10 29 0 32 -37 77 -56 69 -12 -4 -12 -8 -4 -13 7 -5 9 -13 5 -20 -5 -9 -4
-11 3 -6 8 5 12 -1 12 -14 0 -12 -4 -18 -10 -15 -5 3 -10 2 -10 -4 0 -5 4 -13
10 -16 11 -7 25 39 15 54 -3 6 -2 11 3 11 6 0 13 -7 16 -16 9 -23 7 -56 -3
-50 -5 3 -8 -6 -8 -19 0 -14 3 -25 7 -25 4 0 13 -13 20 -30 7 -16 17 -30 22
-30 5 0 6 5 3 10 -3 6 -1 10 4 10 14 0 14 -27 1 -35 -5 -3 -9 -14 -9 -23 1
-16 2 -16 6 0 2 9 10 16 16 14 7 -1 9 -1 6 1 -4 2 -4 13 -2 25 4 11 0 24 -8
29 -9 6 -10 12 -4 17 16 11 12 76 -5 97 -11 13 -12 19 -3 22 7 2 9 12 6 21 -6
15 -5 15 10 3 21 -17 22 -3 2 26 -12 17 -12 23 -3 26 7 2 3 2 -9 0 -20 -3 -22
1 -19 31 2 18 0 40 -5 47 -6 10 -8 6 -5 -11z m27 -103 c-13 -13 -26 -3 -16 12
3 6 11 8 17 5 6 -4 6 -10 -1 -17z"/>
<path d="M645 2570 c3 -5 8 -10 11 -10 2 0 4 5 4 10 0 6 -5 10 -11 10 -5 0 -7
-4 -4 -10z"/>
<path d="M405 2529 c0 -26 1 -27 12 -12 16 21 16 30 0 36 -9 3 -13 -5 -12 -24z"/>
<path d="M610 2550 c0 -5 9 -8 20 -7 21 1 18 10 -5 13 -8 1 -15 -2 -15 -6z"/>
<path d="M57 2515 c3 -8 9 -12 14 -9 12 7 11 11 -5 17 -10 4 -13 1 -9 -8z"/>
<path d="M783 2504 c-8 -8 -9 -15 -3 -19 6 -3 10 -1 10 5 0 6 5 8 10 5 6 -3
10 -2 10 4 0 17 -14 20 -27 5z"/>
<path d="M513 2486 c3 -7 0 -19 -6 -25 -8 -8 -8 -11 0 -11 11 0 23 22 23 41 0
5 -5 9 -11 9 -6 0 -9 -6 -6 -14z"/>
<path d="M544 2488 c-4 -7 -4 -10 1 -6 4 4 15 2 24 -5 14 -11 14 -10 2 6 -16
20 -18 21 -27 5z"/>
<path d="M268 2467 c-7 -36 11 -46 33 -18 10 12 23 20 29 16 5 -3 10 -1 10 4
0 6 -7 11 -15 11 -23 0 -30 -4 -27 -17 1 -6 -3 -15 -9 -19 -7 -4 -10 -3 -7 2
3 5 2 18 -2 29 -6 17 -7 16 -12 -8z"/>
<path d="M743 2479 c9 -6 14 -15 11 -21 -4 -7 -2 -8 4 -4 16 9 3 36 -17 36
-14 -1 -14 -2 2 -11z"/>
<path d="M10 2473 c0 -6 9 -21 21 -34 l20 -24 -17 30 c-24 39 -24 40 -24 28z"/>
<path d="M786 2464 c-22 -22 -20 -44 4 -44 23 0 24 -4 8 -33 -10 -19 -9 -20 4
-9 12 10 20 8 42 -13 15 -14 30 -25 34 -25 4 0 -1 7 -10 14 -10 7 -15 15 -12
19 3 3 -4 8 -15 12 -12 3 -21 14 -21 24 0 10 -7 24 -15 31 -13 11 -13 14 2 26
10 7 13 14 6 14 -6 0 -19 -7 -27 -16z"/>
<path d="M833 2465 c0 -8 4 -15 9 -15 4 0 8 4 8 9 0 6 -4 12 -8 15 -5 3 -9 -1
-9 -9z"/>
<path d="M948 2392 c54 -52 79 -82 70 -86 -7 -3 -4 -4 6 -3 13 1 22 -6 27 -23
6 -22 7 -23 8 -4 1 14 -26 48 -80 100 -44 43 -88 83 -97 88 -9 5 20 -27 66
-72z"/>
<path d="M744 2415 c8 -8 17 -15 20 -15 3 0 3 7 0 15 -4 8 -13 15 -21 15 -12
0 -12 -2 1 -15z"/>
<path d="M507 2405 c3 -8 9 -12 14 -9 12 7 11 11 -5 17 -10 4 -13 1 -9 -8z"/>
<path d="M85 2400 c-5 -8 -4 -15 3 -18 7 -2 9 -15 5 -35 -3 -18 -3 -29 1 -25
7 5 13 26 15 51 1 4 8 7 16 7 8 0 15 5 15 11 0 5 -4 8 -9 5 -5 -4 -12 0 -14 6
-3 7 -6 4 -7 -7 -1 -19 -2 -19 -9 -1 -6 16 -9 17 -16 6z"/>
<path d="M706 2391 c4 -16 3 -21 -5 -17 -6 4 -11 2 -11 -4 0 -7 8 -9 20 -5 16
5 20 2 20 -15 0 -12 -4 -19 -9 -15 -5 3 -12 1 -15 -4 -7 -11 13 -9 32 2 7 5 9
13 6 19 -5 7 -2 8 7 4 8 -5 8 -2 -2 6 -9 7 -14 19 -11 27 3 10 0 12 -11 8 -9
-3 -18 -1 -21 6 -3 7 -3 1 0 -12z"/>
<path d="M765 2380 c-6 -9 71 -100 85 -100 4 0 -12 21 -36 47 -24 25 -41 50
-38 55 3 4 3 8 0 8 -3 0 -8 -4 -11 -10z"/>
<path d="M915 2380 c-3 -5 -1 -10 4 -10 6 0 11 5 11 10 0 6 -2 10 -4 10 -3 0
-8 -4 -11 -10z"/>
<path d="M31 2372 c-1 -8 -6 -10 -13 -6 -7 4 -2 -7 11 -24 22 -32 41 -42 41
-22 0 6 -4 10 -9 10 -5 0 -7 10 -4 23 3 16 2 18 -5 8 -8 -11 -11 -10 -15 5 -2
10 -5 13 -6 6z"/>
<path d="M940 2367 c0 -9 9 -21 20 -27 11 -6 20 -9 20 -7 0 2 -9 14 -20 27
-16 18 -20 19 -20 7z"/>
<path d="M896 2343 c-12 -12 -6 -44 9 -49 8 -4 15 -16 16 -28 0 -21 0 -21 9 2
5 12 14 22 20 22 8 0 8 -6 0 -20 -6 -11 -8 -20 -6 -20 3 0 12 13 21 29 11 22
12 32 3 37 -6 4 -8 3 -5 -3 4 -6 -2 -13 -13 -16 -11 -3 -23 -1 -26 4 -3 5 -10
7 -15 4 -5 -4 -9 4 -9 17 0 18 2 20 10 8 6 -9 10 -10 10 -3 0 15 -15 25 -24
16z"/>
<path d="M110 2329 c0 -5 5 -7 10 -4 6 3 10 8 10 11 0 2 -4 4 -10 4 -5 0 -10
-5 -10 -11z"/>
<path d="M169 2335 c-1 -5 -1 -13 0 -17 2 -13 -17 -9 -22 5 -3 7 -6 6 -6 -5
-1 -9 3 -19 9 -23 5 -3 6 -13 3 -23 -3 -9 -3 -14 1 -10 4 3 9 14 10 23 1 9 7
20 14 24 7 4 8 12 2 21 -6 8 -10 11 -11 5z"/>
<path d="M750 2332 c0 -5 12 -14 28 -21 l27 -13 -22 21 c-24 23 -33 26 -33 13z"/>
<path d="M830 2330 c0 -5 9 -8 20 -7 21 1 18 10 -5 13 -8 1 -15 -2 -15 -6z"/>
<path d="M509 2328 c-8 -27 -8 -58 1 -53 7 4 14 -2 17 -14 3 -12 9 -21 12 -21
6 0 7 -55 1 -70 -1 -3 -1 -9 0 -15 1 -5 -2 -6 -7 -2 -8 9 -10 14 -12 48 0 11
-5 18 -10 15 -5 -3 -7 -15 -4 -26 7 -27 -5 -25 -18 3 -8 19 -9 17 -5 -10 4
-25 2 -33 -9 -33 -8 0 -15 -5 -15 -11 0 -7 9 -6 23 4 14 9 29 12 37 7 7 -5 22
-7 33 -5 15 3 16 1 8 -9 -8 -10 -8 -16 3 -25 11 -9 15 -9 19 1 3 8 6 6 6 -5 1
-10 5 -15 11 -12 6 4 1 18 -12 36 -20 26 -21 32 -9 52 13 19 12 21 -1 10 -15
-13 -28 -8 -28 9 0 5 6 6 13 2 8 -5 8 -2 -2 9 -9 11 -10 17 -2 17 6 0 2 9 -10
21 -11 11 -18 24 -14 27 3 4 10 1 14 -6 5 -8 8 -1 8 18 0 34 -13 40 -22 10 -8
-25 -25 -17 -20 10 2 11 2 20 -1 20 -2 0 -4 -1 -5 -2z m48 -170 c-3 -8 -6 -5
-6 6 -1 11 2 17 5 13 3 -3 4 -12 1 -19z"/>
<path d="M341 2290 c14 -31 19 -36 19 -24 0 6 -7 19 -16 30 -14 18 -14 18 -3
-6z"/>
<path d="M365 2301 c-3 -6 5 -15 17 -21 21 -10 21 -10 6 3 -10 8 -15 17 -11
20 3 4 4 7 0 7 -3 0 -8 -4 -12 -9z"/>
<path d="M40 2296 c0 -14 29 -63 46 -77 16 -13 16 -12 4 11 -16 30 -50 75 -50
66z"/>
<path d="M180 2296 c0 -2 4 -16 9 -29 11 -29 4 -42 -16 -26 -15 13 -17 1 -3
-21 5 -9 5 -19 -1 -27 -6 -7 -8 -17 -5 -22 4 -5 2 -12 -4 -16 -17 -11 -11 -54
10 -67 11 -7 20 -21 20 -31 0 -10 5 -15 10 -12 6 3 10 -3 10 -15 0 -16 -4 -20
-19 -15 -11 3 -22 1 -26 -5 -9 -15 -35 -12 -35 4 0 8 -7 16 -15 20 -22 8 -19
-21 3 -33 11 -6 31 -12 46 -15 15 -3 34 -10 42 -17 11 -9 14 -8 14 2 0 10 3
10 12 1 17 -17 -5 -40 -24 -24 -11 8 -17 6 -26 -9 -12 -19 -11 -19 8 -9 19 10
28 1 13 -14 -13 -13 -10 -44 4 -39 22 8 27 -26 7 -43 -18 -14 -18 -15 3 -5 31
15 33 33 9 60 -11 13 -15 21 -7 16 11 -6 13 -4 8 7 -11 29 6 29 30 1 l23 -28
-17 35 c-9 19 -22 47 -30 62 -15 31 -17 62 -3 53 6 -4 8 -11 5 -16 -6 -8 8
-13 28 -10 4 0 7 -9 8 -22 0 -12 3 -16 6 -9 2 6 8 10 12 8 4 -3 8 1 8 9 0 8
-2 13 -5 10 -5 -4 -65 40 -109 81 -13 12 -23 30 -22 40 0 16 2 16 9 -3 10 -24
34 -30 46 -12 4 7 0 9 -13 5 -14 -4 -19 -1 -20 14 -1 11 2 18 8 15 5 -4 9 1 9
9 0 8 -4 18 -10 21 -5 3 -10 11 -10 16 0 6 4 8 9 4 5 -3 12 -1 16 5 3 5 -1 10
-11 10 -13 0 -14 3 -4 15 16 20 40 19 40 -1 0 -9 5 -12 12 -8 8 5 5 13 -10 25
-18 14 -19 19 -8 28 10 8 19 6 37 -10 13 -11 23 -27 21 -34 -1 -8 2 -16 7 -19
5 -3 7 -16 4 -29 -3 -12 -3 -19 1 -15 7 6 10 56 7 98 -1 12 -3 13 -10 1 -7
-10 -12 -8 -25 10 -9 13 -16 20 -16 15 0 -5 -8 -2 -17 5 -10 8 -14 9 -10 2 12
-19 -10 -25 -27 -7 -9 8 -16 13 -16 10z"/>
<path d="M770 2287 c0 -10 12 -22 26 -27 14 -6 23 -14 19 -19 -3 -6 3 -8 14
-6 19 4 36 -18 32 -42 -1 -7 4 -13 11 -13 10 0 9 -3 -2 -9 -8 -6 -17 -8 -20
-6 -3 2 -6 -5 -7 -15 -1 -11 2 -22 8 -25 5 -4 6 2 2 12 -6 16 -5 16 10 4 15
-12 17 -12 12 0 -4 10 2 15 15 16 24 2 25 -5 3 -29 -14 -15 -14 -21 -3 -31 9
-8 11 -8 6 0 -3 7 2 14 13 18 17 5 18 10 9 35 -5 17 -14 30 -20 30 -5 0 -6 5
-2 12 5 7 3 8 -6 3 -9 -6 -12 -4 -9 6 5 17 -68 91 -75 75 -3 -7 -11 -3 -20 8
-14 18 -16 18 -16 3z"/>
<path d="M974 2267 c-8 -19 -7 -23 6 -23 12 0 15 7 12 23 -5 28 -5 28 -18 0z"/>
<path d="M571 2264 c0 -11 3 -14 6 -6 3 7 2 16 -1 19 -3 4 -6 -2 -5 -13z"/>
<path d="M735 2267 c-17 -13 -17 -15 3 -35 14 -14 17 -22 9 -25 -8 -3 -7 -10
6 -23 16 -18 17 -17 17 6 0 13 -10 35 -22 48 -16 17 -18 23 -7 20 9 -4 16 -1
16 8 0 17 1 17 -22 1z"/>
<path d="M10 2260 c0 -5 5 -10 11 -10 5 0 7 5 4 10 -3 6 -8 10 -11 10 -2 0 -4
-4 -4 -10z"/>
<path d="M112 2245 c-8 -9 -9 -15 -2 -15 8 0 8 -6 0 -20 -8 -16 -8 -20 2 -18
21 5 28 21 15 37 -10 12 -9 14 5 8 12 -4 15 -2 11 9 -7 18 -14 17 -31 -1z"/>
<path d="M370 2250 c0 -14 15 -19 29 -11 9 6 7 10 -8 14 -12 3 -21 1 -21 -3z"/>
<path d="M420 2245 c0 -8 5 -15 10 -15 6 0 10 7 10 15 0 8 -4 15 -10 15 -5 0
-10 -7 -10 -15z"/>
<path d="M891 2244 c0 -11 3 -14 6 -6 3 7 2 16 -1 19 -3 4 -6 -2 -5 -13z"/>
<path d="M341 2234 c0 -11 3 -14 6 -6 3 7 2 16 -1 19 -3 4 -6 -2 -5 -13z"/>
<path d="M684 2241 c4 -6 1 -11 -6 -11 -17 0 12 -20 30 -20 19 0 14 18 -9 31
-15 8 -19 8 -15 0z"/>
<path d="M1038 2243 c7 -3 16 -2 19 1 4 3 -2 6 -13 5 -11 0 -14 -3 -6 -6z"/>
<path d="M9 2235 c-4 -34 -6 -98 -2 -87 3 6 8 12 13 12 4 0 7 -6 6 -12 0 -7 4
-15 9 -16 18 -6 35 -24 30 -32 -3 -4 5 -19 16 -31 l21 -24 -16 27 c-10 17 -12
29 -6 33 6 3 10 1 10 -5 0 -7 7 -10 15 -6 8 3 15 2 15 -3 0 -5 8 -11 18 -15 9
-3 23 -9 31 -12 7 -4 -1 7 -18 23 -30 30 -41 63 -20 63 5 0 7 5 3 11 -4 8 -9
8 -13 1 -4 -6 -17 4 -30 24 -13 19 -27 34 -31 34 -12 0 -4 -54 9 -58 6 -2 8
-9 5 -14 -4 -7 -2 -8 5 -4 6 4 9 12 6 17 -4 5 -2 9 3 9 15 0 22 -28 9 -34 -9
-3 -9 -5 1 -5 6 -1 12 -8 12 -17 0 -14 -3 -14 -15 -4 -8 7 -15 9 -15 4 0 -4
-9 2 -21 14 -11 12 -17 27 -14 32 3 6 -3 10 -14 10 -12 0 -21 7 -21 16 0 8 5
12 10 9 6 -3 10 0 10 7 0 16 -19 46 -21 33z m65 -51 c3 -8 2 -12 -4 -9 -6 3
-10 10 -10 16 0 14 7 11 14 -7z"/>
<path d="M257 2225 c-4 -8 -2 -17 3 -20 6 -4 10 3 10 14 0 25 -6 27 -13 6z"/>
<path d="M1006 2224 c-6 -16 5 -26 18 -15 7 6 16 4 24 -5 10 -11 10 -14 0 -14
-9 0 -9 -3 0 -12 7 -7 12 -16 12 -22 0 -5 -6 -1 -14 9 -8 11 -12 24 -9 30 3 5
0 5 -6 -1 -9 -8 -10 -17 -3 -30 6 -11 14 -28 18 -39 6 -18 7 -17 15 8 4 16 5
35 2 43 -3 8 1 14 8 14 10 1 9 4 -3 14 -10 7 -15 15 -12 18 2 3 -6 8 -20 10
-15 3 -27 0 -30 -8z"/>
<path d="M367 2211 c6 -23 18 -27 29 -10 5 8 10 6 18 -7 12 -21 40 -32 34 -14
-2 7 -8 11 -13 10 -5 -1 -13 9 -18 22 -6 18 -10 20 -17 8 -7 -11 -11 -11 -23
-1 -13 10 -15 9 -10 -8z"/>
<path d="M683 2193 c-7 -3 -13 -12 -13 -21 0 -15 2 -15 17 1 18 18 16 27 -4
20z"/>
<path d="M224 2179 c-13 -16 -15 -51 -3 -43 4 2 13 -5 20 -18 9 -16 9 -23 0
-26 -6 -2 -9 -8 -6 -12 3 -5 11 -7 19 -4 14 5 10 64 -4 64 -5 0 -10 12 -12 27
-2 21 -5 24 -14 12z"/>
<path d="M257 2184 c-9 -9 11 -44 25 -44 6 0 4 8 -5 18 -10 10 -14 22 -10 25
3 4 4 7 1 7 -2 0 -8 -3 -11 -6z"/>
<path d="M393 2170 c1 -11 5 -20 10 -20 5 0 7 -7 4 -15 -4 -8 -1 -17 5 -21 6
-4 8 -3 4 4 -3 6 -2 13 4 17 6 3 10 -4 11 -17 0 -21 1 -21 8 -3 5 13 2 26 -11
39 -10 11 -18 23 -18 28 0 4 -4 8 -9 8 -6 0 -9 -9 -8 -20z"/>
<path d="M461 2174 c0 -11 3 -14 6 -6 3 7 2 16 -1 19 -3 4 -6 -2 -5 -13z"/>
<path d="M717 2179 c7 -7 15 -10 18 -7 3 3 -2 9 -12 12 -14 6 -15 5 -6 -5z"/>
<path d="M1110 2176 c0 -6 9 -12 20 -12 11 0 19 5 17 10 -5 14 -37 16 -37 2z"/>
<path d="M776 2164 c-10 -26 -7 -41 5 -24 8 12 9 9 5 -12 -3 -15 -2 -29 4 -33
5 -3 8 -11 6 -18 -1 -7 -1 -8 2 -4 2 4 10 3 18 -4 11 -9 14 -8 14 5 0 9 -7 16
-16 16 -13 0 -15 7 -11 28 7 33 -17 73 -27 46z"/>
<path d="M817 2165 c-4 -8 -2 -17 3 -20 6 -4 10 3 10 14 0 25 -6 27 -13 6z"/>
<path d="M703 2155 c0 -8 4 -12 9 -9 5 3 6 10 3 15 -9 13 -12 11 -12 -6z"/>
<path d="M1000 2155 c7 -8 17 -15 22 -15 6 0 5 7 -2 15 -7 8 -17 15 -22 15 -6
0 -5 -7 2 -15z"/>
<path d="M340 2143 c0 -14 2 -15 9 -5 6 11 11 10 25 -3 9 -9 16 -12 16 -6 0 9
-31 31 -44 31 -3 0 -6 -8 -6 -17z"/>
<path d="M595 2150 c-3 -5 -1 -10 4 -10 6 0 11 5 11 10 0 6 -2 10 -4 10 -3 0
-8 -4 -11 -10z"/>
<path d="M984 2141 c11 -11 23 -21 28 -21 14 0 -1 19 -25 31 -22 12 -22 12 -3
-10z"/>
<path d="M310 2130 c-13 -8 -12 -10 3 -10 9 0 17 5 17 10 0 12 -1 12 -20 0z"/>
<path d="M510 2113 c0 -21 -3 -24 -9 -14 -8 12 -11 9 -17 -13 -5 -20 -9 -24
-15 -14 -5 7 -9 9 -9 5 0 -4 -9 -3 -20 3 -14 7 -20 7 -20 0 0 -5 6 -10 13 -10
8 0 7 -4 -3 -11 -12 -8 -9 -9 9 -3 18 5 29 1 43 -17 11 -13 17 -19 14 -13 -3
6 0 23 7 37 14 30 40 46 30 19 -5 -13 -3 -15 7 -5 15 14 5 47 -11 37 -7 -4 -9
-3 -5 4 3 6 2 13 -4 17 -6 4 -10 -5 -10 -22z m-13 -45 c-3 -8 -6 -5 -6 6 -1
11 2 17 5 13 3 -3 4 -12 1 -19z"/>
<path d="M751 2120 c14 -31 19 -36 19 -24 0 6 -7 19 -16 30 -14 18 -14 18 -3
-6z"/>
<path d="M3 2092 c-2 -34 0 -38 22 -38 31 0 35 32 6 41 -12 4 -18 12 -14 21 3
7 1 14 -3 14 -5 0 -10 -17 -11 -38z m27 -18 c0 -8 -5 -12 -10 -9 -6 4 -8 11
-5 16 9 14 15 11 15 -7z"/>
<path d="M276 2115 c-9 -24 -8 -27 7 -19 6 4 4 -2 -6 -13 -9 -11 -14 -23 -10
-26 3 -4 1 -7 -6 -7 -7 0 -9 -4 -6 -10 11 -17 25 -11 25 11 0 18 3 19 14 10
13 -11 13 -7 4 26 -12 46 -14 48 -22 28z"/>
<path d="M710 2126 c0 -2 7 -7 16 -10 8 -3 12 -2 9 4 -6 10 -25 14 -25 6z"/>
<path d="M349 2114 c-1 -5 -1 -12 0 -16 2 -11 -13 -10 -25 2 -7 7 -11 6 -11
-4 0 -8 4 -13 9 -10 4 3 8 0 8 -5 0 -6 4 -11 9 -11 12 0 25 39 17 47 -3 4 -7
2 -7 -3z"/>
<path d="M451 2104 c0 -11 3 -14 6 -6 3 7 2 16 -1 19 -3 4 -6 -2 -5 -13z"/>
<path d="M831 2115 c-1 -17 15 -36 29 -33 7 2 15 -3 18 -11 3 -9 0 -11 -7 -6
-9 5 -9 2 0 -13 7 -12 17 -18 21 -16 4 3 8 0 8 -5 0 -6 -5 -11 -12 -11 -6 0
-2 -10 10 -23 22 -23 32 -51 11 -30 -6 6 -18 9 -27 6 -10 -4 -13 -2 -8 5 4 7
2 20 -4 29 -10 16 -11 16 -6 1 3 -12 1 -15 -10 -11 -16 6 -20 -12 -4 -22 7 -4
7 -12 1 -23 -11 -19 22 -72 45 -72 20 0 28 25 15 47 -11 16 -11 16 -9 -4 2
-12 0 -22 -4 -23 -28 -1 -30 1 -17 16 11 14 10 18 -6 31 -19 15 -19 15 5 9 61
-16 61 -16 54 7 -4 11 -12 27 -19 34 -7 7 -11 21 -8 31 5 20 -43 86 -57 77 -5
-3 -11 1 -13 7 -3 7 -6 9 -6 3z m49 -185 c0 -5 -2 -10 -4 -10 -3 0 -8 5 -11
10 -3 6 -1 10 4 10 6 0 11 -4 11 -10z"/>
<path d="M980 2112 c0 -4 7 -16 15 -26 15 -19 15 -19 15 1 0 11 -7 23 -15 27
-8 3 -15 2 -15 -2z"/>
<path d="M624 2093 c4 -26 22 -33 24 -9 1 13 -4 23 -12 23 -8 0 -13 -6 -12
-14z"/>
<path d="M921 2105 c1 -19 18 -51 18 -35 0 8 -4 22 -9 30 -5 8 -9 11 -9 5z"/>
<path d="M106 2067 c3 -10 9 -15 12 -12 3 3 0 11 -7 18 -10 9 -11 8 -5 -6z"/>
<path d="M363 2062 c0 -9 4 -23 10 -29 7 -9 5 -13 -7 -13 -10 0 -16 9 -17 23
0 12 -3 16 -6 10 -2 -7 -12 -13 -21 -13 -10 0 -13 -3 -7 -8 6 -4 10 -16 10
-27 0 -11 7 -20 15 -20 17 -1 59 -24 48 -26 -5 -1 -14 -2 -20 -3 -7 0 -14 -10
-14 -21 -1 -11 -5 -28 -9 -37 -4 -11 0 -20 14 -27 26 -14 28 -14 28 4 0 8 -9
15 -19 15 -15 0 -17 4 -10 18 5 9 7 23 4 31 -4 12 -3 12 11 0 11 -11 12 -17 3
-28 -8 -12 -8 -13 2 -7 12 7 15 2 15 -29 0 -34 -3 -38 -18 -25 -9 8 -15 9 -15
2 0 -6 5 -14 10 -17 6 -3 10 -13 10 -21 0 -8 -5 -12 -10 -9 -6 4 -7 11 -4 17
4 7 2 8 -4 4 -6 -3 -16 3 -22 15 -8 15 -9 19 -1 15 16 -10 14 -1 -9 36 -12 20
-20 27 -20 16 0 -9 -6 -19 -12 -22 -10 -3 -8 -9 4 -19 10 -8 15 -16 12 -19 -3
-3 7 -15 21 -26 15 -12 24 -26 20 -33 -6 -8 -2 -8 13 0 24 13 32 14 31 4 -3
-19 2 -34 10 -29 4 3 8 29 8 57 0 39 5 56 19 66 17 12 17 14 1 30 -16 16 -17
16 -17 -10 0 -16 -4 -26 -9 -22 -11 6 -10 45 1 45 13 0 9 33 -7 54 -7 10 -18
15 -24 11 -6 -3 -16 -3 -22 0 -6 4 1 13 16 21 30 15 49 10 41 -11 -3 -8 1 -18
8 -24 11 -9 12 -5 7 21 -5 24 -13 34 -29 36 -12 2 -22 10 -22 17 0 20 -17 27
-17 7z m44 -244 c-3 -7 -5 -2 -5 12 0 14 2 19 5 13 2 -7 2 -19 0 -25z"/>
<path d="M58 2043 c-10 -2 -18 -9 -18 -14 0 -12 17 -12 25 1 4 6 11 7 17 4 7
-4 8 -2 4 4 -4 7 -8 11 -9 11 -1 -1 -10 -3 -19 -6z"/>
<path d="M803 2043 c-7 -2 -13 -9 -13 -15 0 -6 6 -6 15 2 8 6 19 9 25 5 5 -3
10 -1 10 4 0 11 -16 13 -37 4z"/>
<path d="M4 2018 c3 -13 6 -29 6 -36 0 -7 4 -10 10 -7 5 3 10 0 10 -7 0 -10 3
-9 11 2 9 13 10 13 6 0 -2 -8 -12 -14 -21 -14 -19 2 -19 2 -4 -31 8 -18 14
-22 20 -13 6 10 8 9 8 -2 0 -8 -10 -20 -23 -25 -23 -10 -37 -55 -17 -55 7 0 9
-7 6 -17 -6 -16 -6 -16 12 0 10 9 22 14 25 10 4 -3 7 -2 7 4 0 6 -7 13 -15 17
-8 3 -15 11 -14 18 0 10 2 10 6 1 7 -18 44 3 37 21 -3 8 -1 17 5 21 6 3 11 14
11 23 0 15 -2 15 -10 2 -8 -13 -10 -12 -10 3 0 10 -4 15 -10 12 -6 -3 -7 1 -4
10 4 8 1 21 -5 29 -6 7 -8 16 -4 19 3 4 1 7 -4 7 -6 0 -14 -6 -17 -12 -3 -7
-3 -3 -1 8 4 14 0 24 -11 28 -13 5 -15 2 -10 -16z"/>
<path d="M440 2031 c1 -10 27 -41 34 -41 4 0 2 8 -3 19 -6 10 -8 20 -6 23 3 3
-2 5 -10 5 -8 0 -15 -3 -15 -6z"/>
<path d="M100 1982 c6 -13 14 -21 18 -18 3 4 -2 14 -12 24 -18 16 -18 16 -6
-6z"/>
<path d="M70 1975 c0 -8 4 -15 10 -15 5 0 7 7 4 15 -4 8 -8 15 -10 15 -2 0 -4
-7 -4 -15z"/>
<path d="M294 1953 c2 -14 -2 -23 -13 -26 -14 -4 -14 -5 1 -6 22 -1 28 9 17
34 -9 19 -9 19 -5 -2z"/>
<path d="M945 1940 c-4 -6 -11 -8 -16 -5 -13 9 -11 -9 4 -24 10 -10 7 -16 -13
-31 -14 -11 -30 -18 -35 -16 -21 7 -10 -39 14 -61 27 -26 30 -26 50 -14 7 5
10 14 6 21 -6 9 -9 9 -15 1 -5 -9 -10 -7 -20 4 -11 13 -10 14 6 9 18 -7 18 -7
2 13 -10 11 -18 24 -18 29 0 5 10 -2 21 -16 20 -24 21 -24 16 -3 -5 21 -4 21
18 7 21 -14 22 -13 18 11 -3 14 -11 25 -18 25 -7 0 -16 7 -19 16 -10 25 -7 27
12 13 15 -12 16 -12 5 2 -7 9 -10 19 -6 22 3 4 4 7 0 7 -3 0 -9 -5 -12 -10z"/>
<path d="M540 1911 c0 -5 5 -13 10 -16 6 -3 10 -2 10 4 0 5 -4 13 -10 16 -5 3
-10 2 -10 -4z"/>
<path d="M100 1900 c-8 -5 -12 -12 -9 -15 4 -3 12 1 19 10 14 17 11 19 -10 5z"/>
<path d="M255 1863 c-3 -10 -1 -19 4 -21 6 -2 11 -8 11 -13 0 -6 -5 -7 -11 -4
-6 4 -21 -3 -33 -14 -22 -21 -24 -21 -31 -4 -5 10 -7 21 -7 26 1 4 -5 7 -14 7
-14 0 -14 -3 -4 -15 9 -11 9 -15 1 -15 -7 0 -9 -5 -5 -11 5 -8 9 -8 14 1 5 8
9 7 13 -4 4 -9 10 -15 14 -14 5 2 20 -7 33 -20 17 -16 19 -21 8 -17 -20 8 -26
-19 -7 -31 8 -4 7 -9 -2 -15 -11 -6 -10 -9 4 -15 9 -3 14 -10 11 -15 -3 -5 0
-9 6 -9 6 0 8 12 5 29 -3 20 0 31 11 35 12 5 14 1 9 -17 -7 -20 -6 -21 10 -6
15 14 15 21 4 59 -11 38 -11 43 5 52 13 8 15 13 5 24 -6 8 -18 14 -26 14 -8 0
-12 4 -8 9 3 5 1 12 -4 15 -5 3 -12 -2 -16 -11z m52 -39 c-3 -3 -12 -4 -19 -1
-8 3 -5 6 6 6 11 1 17 -2 13 -5z m-51 -20 c-3 -9 -6 -17 -6 -20 0 -2 -7 -1
-15 2 -11 5 -12 9 -2 20 16 18 30 17 23 -2z m20 -10 c-4 -9 -1 -23 5 -31 9
-11 8 -17 -7 -28 -23 -17 -34 -19 -34 -5 0 6 6 9 13 8 6 -2 11 3 9 11 -4 18 6
61 14 61 3 0 3 -7 0 -16z"/>
<path d="M965 1810 c19 -21 30 -27 20 -10 -3 6 -1 10 4 10 6 0 11 5 11 10 0 6
-12 10 -27 10 -25 0 -26 0 -8 -20z"/>
<path d="M1004 1808 c-3 -5 -1 -15 6 -23 17 -20 -7 -30 -26 -11 -18 18 -36 12
-28 -8 3 -8 1 -17 -5 -21 -6 -3 -11 1 -11 10 0 9 -4 14 -9 11 -5 -4 -11 -1
-13 5 -2 6 -23 13 -47 15 -43 4 -44 3 -26 -16 11 -13 14 -20 6 -20 -7 0 -10
-4 -6 -10 9 -14 37 0 31 16 -6 16 -4 17 18 8 9 -3 16 -13 16 -21 0 -8 4 -12 9
-9 5 4 8 -2 6 -11 -2 -10 -4 -21 -4 -25 -1 -5 -6 -8 -12 -8 -6 0 -9 6 -6 13 7
19 -8 41 -22 33 -8 -5 -5 -17 10 -37 23 -33 43 -34 45 -1 1 26 23 54 35 46 5
-3 9 0 9 6 0 6 5 8 10 5 6 -4 17 -1 26 5 12 10 12 16 2 28 -11 13 -10 15 3 10
9 -4 16 -1 16 6 0 14 -25 17 -33 4z"/>
<path d="M22 1793 c-22 -16 -31 -53 -12 -53 7 0 7 -6 0 -19 -13 -26 -14 -63
-1 -41 6 8 7 18 5 22 -3 4 0 8 6 8 6 0 8 5 5 10 -3 6 4 15 17 20 23 11 23 11
1 6 -16 -3 -23 1 -23 11 0 8 4 12 9 9 5 -3 11 5 13 19 3 14 5 25 4 24 0 0 -11
-7 -24 -16z"/>
<path d="M860 1798 c0 -4 4 -8 9 -8 6 0 12 4 15 8 3 5 -1 9 -9 9 -8 0 -15 -4
-15 -9z"/>
<path d="M456 1742 c-3 -5 1 -9 9 -9 8 0 15 4 15 9 0 4 -4 8 -9 8 -6 0 -12 -4
-15 -8z"/>
<path d="M33 1724 c3 -4 2 -15 -3 -24 -7 -13 -5 -22 8 -31 15 -13 16 -12 4 3
-9 11 -10 18 -2 23 14 8 13 35 -2 35 -6 0 -8 -3 -5 -6z"/>
<path d="M980 1710 c6 -11 12 -20 14 -20 2 0 2 9 -1 20 -3 11 -9 20 -15 20 -5
0 -4 -9 2 -20z"/>
<path d="M291 1687 c-6 -8 -8 -17 -4 -20 7 -8 33 11 33 24 0 13 -16 11 -29 -4z"/>
<path d="M785 1670 c3 -5 11 -10 16 -10 6 0 7 5 4 10 -3 6 -11 10 -16 10 -6 0
-7 -4 -4 -10z"/>
<path d="M895 1641 c-3 -5 -2 -12 3 -15 5 -3 9 1 9 9 0 17 -3 19 -12 6z"/>
<path d="M6 1617 c3 -10 9 -15 12 -12 3 3 0 11 -7 18 -10 9 -11 8 -5 -6z"/>
<path d="M2 1301 c2 -20 9 -36 18 -39 12 -4 13 -2 3 9 -19 19 -16 50 3 47 10
-2 19 3 21 9 3 9 -4 12 -22 11 -23 -2 -26 -6 -23 -37z"/>
<path d="M130 1180 c0 -5 5 -10 11 -10 5 0 7 5 4 10 -3 6 -8 10 -11 10 -2 0
-4 -4 -4 -10z"/>
<path d="M0 1144 c0 -8 5 -12 10 -9 6 4 8 11 5 16 -9 14 -15 11 -15 -7z"/>
<path d="M39 1137 c6 -8 7 -17 3 -22 -4 -4 3 -2 15 6 23 14 14 29 -16 29 -10
0 -11 -3 -2 -13z"/>
<path d="M123 1073 c-17 -6 -17 -20 0 -20 8 0 14 6 14 14 0 7 -1 13 -1 12 -1
0 -7 -3 -13 -6z"/>
<path d="M50 15 c0 -19 26 -19 34 0 4 10 -1 15 -14 15 -11 0 -20 -7 -20 -15z"/>
</g>
</svg>
